<svg width="35" height="35" viewBox="0 0 35 35" fill="none" xmlns="http://www.w3.org/2000/svg">
<path d="M16.1778 0C17.0644 0 17.9356 0 18.8222 0C18.9622 0.0466667 19.1022 0.108889 19.2578 0.124444C26.6156 1.08889 31.5778 5.08667 34.0822 12.0556C34.5489 13.3778 34.7044 14.8089 35 16.1778C35 17.0644 35 17.9356 35 18.8222C34.9533 18.9622 34.8911 19.1022 34.8756 19.2578C33.9111 26.6156 29.9133 31.5778 22.9444 34.0822C21.6222 34.5489 20.1911 34.7044 18.8222 35C17.9356 35 17.0644 35 16.1778 35C16.0378 34.9533 15.8978 34.8911 15.7422 34.8756C8.38444 33.9111 3.42222 29.9133 0.917778 22.9444C0.451111 21.6222 0.295556 20.1911 0 18.8222C0 17.9356 0 17.0644 0 16.1778C0.0466667 16.0378 0.108889 15.8978 0.124444 15.7422C1.08889 8.38444 5.08667 3.43778 12.0556 0.917778C13.3622 0.451111 14.7933 0.295556 16.1778 0ZM32.9467 17.5156C32.9622 9.05333 26.0089 2.06889 17.5467 2.03778C9.06889 2.02222 2.08444 8.97556 2.05333 17.4378C2.02222 25.9311 8.99111 32.9467 17.5 32.9467C25.9622 32.9467 32.9311 25.9933 32.9467 17.5156Z" fill="#161616"/>
<path d="M19.8334 22.7421C20.9223 24.6244 21.9956 26.4755 23.0534 28.3266C21.7934 29.5088 20.0978 29.6955 18.6045 28.8399C16.7378 27.751 15.2756 26.211 13.9845 24.5155C11.5267 21.2644 9.6445 17.7177 8.78894 13.6888C8.68006 13.191 8.61783 12.6621 8.55561 12.1488C8.32228 10.0644 9.28672 8.67993 11.2156 7.82437C12.2889 9.69104 13.3778 11.5577 14.4823 13.4555C13.3001 14.3888 13.2845 15.6488 13.5801 16.9244C14.0156 18.8688 14.9334 20.5644 16.4112 21.9021C17.3756 22.8044 18.4489 23.3644 19.8334 22.7421Z" fill="#161616"/>
<path d="M15.5399 13.58C15.2444 13.3156 14.9644 13.16 14.8244 12.9267C13.8133 11.2311 12.8333 9.48888 11.8377 7.77777C11.5421 7.26444 11.6666 6.89111 12.1488 6.61111C12.6155 6.33111 13.0821 6.06666 13.5488 5.78666C14.0466 5.47555 14.451 5.6 14.731 6.08222C15.7422 7.82444 16.7533 9.56666 17.7333 11.3244C17.8577 11.5422 17.8888 12.0089 17.7799 12.0867C17.0955 12.6156 16.3488 13.0511 15.5399 13.58Z" fill="#161616"/>
<path d="M22.6181 20.3156C22.8669 20.5489 23.1625 20.7044 23.3025 20.9378C24.3136 22.6489 25.3092 24.3756 26.3047 26.1022C26.6003 26.6156 26.4447 26.9889 25.9625 27.2689C25.5114 27.5178 25.0603 27.7822 24.6247 28.0467C24.0647 28.3733 23.6603 28.2333 23.3492 27.6733C22.3847 25.9778 21.4203 24.3133 20.4403 22.6333C20.1292 22.1044 20.2225 21.7 20.7514 21.4044C21.3269 21.0467 21.9336 20.7044 22.6181 20.3156Z" fill="#161616"/>
</svg>
