<svg width="32" height="32" viewBox="0 0 32 32" fill="none" xmlns="http://www.w3.org/2000/svg">
<path d="M7.97174 32C7.97174 29.3567 7.97174 26.7534 7.97174 24.1101C7.81055 24.1101 7.68965 24.1101 7.56875 24.1101C6.15828 24.1101 4.70752 24.1101 3.29705 24.1101C1.92688 24.1101 1 23.229 1 21.8673C1 17.9825 1 14.1377 1 10.2528C1 8.85106 2.04778 7.84981 3.37765 7.92991C4.78811 7.96996 6.15828 7.92991 7.56875 7.92991C7.68965 7.92991 7.81055 7.92991 7.93144 7.92991C7.93144 5.28661 7.93144 2.68335 7.93144 0C8.09264 0 8.17324 0 8.29414 0C11.639 0 15.0241 0 18.3689 0C18.5301 0 18.7316 0.0801001 18.8525 0.20025C20.263 1.602 21.6734 2.9637 23.0436 4.36546C23.1645 4.48561 23.2451 4.68586 23.2451 4.84606C23.2451 5.72716 23.2451 6.64831 23.2451 7.52941C23.2451 7.64956 23.2451 7.76971 23.2451 7.92991C23.4063 7.92991 23.5272 7.92991 23.6481 7.92991C25.0989 7.92991 26.5093 7.92991 27.9601 7.92991C29.29 7.92991 30.2168 8.81101 30.2168 10.1727C30.2168 14.0976 30.2168 18.0225 30.2168 21.9474C30.2168 23.229 29.29 24.1101 28.0004 24.1101C26.5899 24.1101 25.1392 24.1101 23.7287 24.1101C23.6078 24.1101 23.4466 24.1101 23.2854 24.1101C23.2854 26.7534 23.2854 29.3567 23.2854 32C18.1674 32 13.0897 32 7.97174 32ZM7.97174 22.7484C7.97174 21.8673 7.97174 21.0263 7.97174 20.1452C7.85085 20.1452 7.72995 20.1452 7.60905 20.1452C7.24636 20.1051 7.00457 19.8648 7.00457 19.5044C7.00457 19.1039 7.20606 18.8636 7.56875 18.8235C7.68965 18.8235 7.81055 18.8235 7.93144 18.8235C11.5584 18.8235 15.1853 18.8235 18.8525 18.8235C20.3839 18.8235 21.9555 18.8235 23.4869 18.8235C23.9705 18.8235 24.2123 19.0638 24.2123 19.5044C24.2123 19.9449 23.9705 20.1452 23.4869 20.1852C23.4063 20.1852 23.3257 20.1852 23.2854 20.2253C23.2854 21.1064 23.2854 21.9474 23.2854 22.8285C23.4466 22.8285 23.5675 22.8285 23.6884 22.8285C25.0586 22.8285 26.469 22.8285 27.8392 22.8285C28.5646 22.8285 28.887 22.5482 28.887 21.7872C28.887 17.9424 28.887 14.1377 28.887 10.2929C28.887 9.61202 28.5646 9.29161 27.8795 9.29161C26.4287 9.29161 25.0183 9.29161 23.5675 9.29161C23.4869 9.29161 23.366 9.29161 23.2451 9.33166C23.2451 10.2128 23.2451 11.0538 23.2451 11.8949C23.366 11.8949 23.4466 11.8949 23.5675 11.8949C23.9705 11.9349 24.2123 12.1752 24.2123 12.5757C24.2123 12.9762 24.0108 13.2165 23.5675 13.2566C23.4063 13.2566 23.2854 13.2566 23.1242 13.2566C18.0465 13.2566 12.9285 13.2566 7.85085 13.2566C7.72995 13.2566 7.60905 13.2566 7.48815 13.2566C7.12546 13.2165 6.92397 12.9362 6.92397 12.5757C6.92397 12.2153 7.16576 11.975 7.52845 11.9349C7.64935 11.9349 7.77025 11.9349 7.89115 11.8949C7.89115 11.0138 7.89115 10.1727 7.89115 9.29161C6.31948 9.29161 4.78811 9.29161 3.29705 9.29161C2.61196 9.29161 2.32987 9.61202 2.32987 10.2528C2.32987 14.0976 2.32987 17.9424 2.32987 21.7872C2.32987 22.5081 2.61196 22.7885 3.33735 22.7885C4.74782 22.7885 6.15828 22.7885 7.56875 22.7885C7.72995 22.7885 7.81055 22.7885 7.97174 22.7484ZM21.8749 11.8548C21.8749 9.81227 21.8749 7.80976 21.8749 5.76721C20.3839 5.76721 18.9331 5.76721 17.4017 5.76721C17.4017 4.28536 17.4017 2.8035 17.4017 1.3617C14.7017 1.3617 12.0017 1.3617 9.34191 1.3617C9.34191 4.88611 9.34191 8.37046 9.34191 11.8548C13.533 11.8548 17.6838 11.8548 21.8749 11.8548ZM9.34191 20.1852C9.34191 20.3054 9.30161 20.3855 9.30161 20.4656C9.30161 23.7497 9.30161 27.0738 9.30161 30.3579C9.30161 30.6383 9.42251 30.6783 9.66431 30.6783C13.6136 30.6783 17.5629 30.6783 21.5122 30.6783C21.8346 30.6783 21.9152 30.5982 21.9152 30.2778C21.9152 27.0338 21.9152 23.7497 21.9152 20.5056C21.9152 20.3855 21.9152 20.2653 21.9152 20.1452C17.7241 20.1852 13.533 20.1852 9.34191 20.1852ZM18.8122 2.0826C18.8122 2.8836 18.8122 3.64456 18.8122 4.40551C19.6182 4.40551 20.3839 4.40551 21.1495 4.40551C20.3839 3.64456 19.6182 2.8836 18.8122 2.0826Z" fill="black"/>
<path d="M27.2344 16.0201C27.2344 16.8211 26.8717 17.1815 26.0657 17.1815C25.2598 17.1815 24.8971 16.8211 24.8971 15.98C24.8971 15.179 25.2598 14.8186 26.0657 14.8186C26.8717 14.8586 27.2344 15.2191 27.2344 16.0201Z" fill="black"/>
<path d="M15.6283 23.1488C14.1775 23.1488 12.6865 23.1488 11.2357 23.1488C10.7118 23.1488 10.47 22.8685 10.5103 22.3879C10.5506 22.0675 10.7118 21.8672 10.9939 21.8272C11.1148 21.7871 11.276 21.7871 11.3969 21.7871C14.2581 21.7871 17.0791 21.7871 19.9403 21.7871C20.4239 21.7871 20.6657 21.9073 20.7463 22.2277C20.9075 22.7083 20.5851 23.1488 20.0209 23.1488C18.5701 23.1488 17.0791 23.1488 15.6283 23.1488Z" fill="black"/>
<path d="M15.6283 26.1125C14.1775 26.1125 12.6864 26.1125 11.2357 26.1125C10.7924 26.1125 10.5506 25.9122 10.5103 25.5518C10.47 25.1112 10.7118 24.7908 11.1954 24.7908C11.7193 24.7908 12.2431 24.7908 12.8073 24.7908C15.185 24.7908 17.6029 24.7908 19.9806 24.7908C20.4642 24.7908 20.706 24.951 20.8269 25.2714C20.9477 25.752 20.6657 26.1525 20.1015 26.1525C18.5701 26.1125 17.079 26.1125 15.6283 26.1125Z" fill="black"/>
<path d="M15.6289 29.0762C14.1782 29.0762 12.7274 29.0762 11.2766 29.0762C10.793 29.0762 10.5109 28.8759 10.5109 28.4754C10.4706 27.9948 10.7527 27.7545 11.2363 27.7145C12.2035 27.7145 13.1304 27.7145 14.0976 27.7145C16.0722 27.7145 18.0469 27.7145 19.9812 27.7145C20.5051 27.7145 20.7872 27.9147 20.7872 28.3553C20.7872 28.7958 20.5454 29.0762 20.0618 29.0762C18.5708 29.0762 17.0797 29.0762 15.6289 29.0762Z" fill="black"/>
</svg>
