<svg width="35" height="35" viewBox="0 0 35 35" fill="none" xmlns="http://www.w3.org/2000/svg">
<path d="M25.772 32.084C25.772 33.0816 25.772 34.0216 25.772 35C24.8698 35 24.0657 35 23.1832 35C23.1832 33.2542 23.1832 31.5277 23.1832 29.7628C23.9873 29.6668 24.811 29.6477 25.5955 29.475C27.5567 29.0338 28.5373 27.8443 28.5961 25.8684C28.6353 24.2761 28.6353 22.6647 28.5961 21.0724C28.5765 20.4585 28.7726 20.1515 29.3806 19.9789C30.0278 19.8062 30.6554 19.5185 31.4399 19.2307C31.028 18.4825 30.6358 17.7919 30.2435 17.1205C29.1453 15.2404 28.2823 13.322 27.7332 11.1542C26.1838 4.88104 21.4966 2.44467 15.6326 2.65569C15.3776 2.65569 15.1227 2.73243 14.8089 2.78998C14.8089 5.41819 14.8089 8.02722 14.8089 10.6938C15.0638 10.7322 15.358 10.8089 15.6326 10.8473C19.1235 11.3652 21.222 14.9527 19.8295 18.1372C19.555 18.7703 19.653 19.1156 20.1433 19.5185C20.5356 19.8446 20.9082 20.2091 21.2612 20.5928C21.83 21.2259 22.4183 21.6479 23.3989 21.6287C24.7325 21.5903 25.7524 22.8373 25.7916 24.1994C25.8112 25.5998 24.7129 26.77 23.2813 26.8851C21.928 27.0003 20.4179 26.0602 20.4571 24.7941C20.4964 23.3553 19.555 22.7414 18.7705 21.8781C18.0841 21.1107 17.4957 20.7654 16.319 21.2067C13.8871 22.1275 11.1807 20.8997 9.92548 18.636C8.70954 16.3723 9.27829 13.533 11.3375 11.9983C11.9063 11.5763 12.0828 11.135 12.0632 10.4828C12.024 8.12314 12.0436 5.76351 12.0436 3.26958C9.55286 3.94102 7.55243 5.1688 6.17959 7.14476C3.17895 11.4995 2.80633 16.0462 5.33628 20.7271C5.96386 21.8781 6.76795 22.9332 7.4936 24.0267C8.67032 25.8108 9.33712 27.7292 9.23906 29.897C9.16062 31.5852 9.21945 33.2734 9.21945 35C8.27808 35 7.45437 35 6.513 35C6.513 33.6187 6.43455 32.2759 6.53261 30.9522C6.72873 28.4966 5.98347 26.3864 4.51257 24.4296C3.17895 22.6455 2.08068 20.7463 1.49232 18.5593C-0.645387 10.4252 4.27723 1.04423 14.3382 0.104211C18.8097 -0.317838 22.9282 0.487892 26.3603 3.51897C28.9295 5.80187 30.1455 8.79459 30.773 12.0751C30.8711 12.5355 31.0084 12.9959 31.2437 13.4179C31.989 14.7992 32.8127 16.1421 33.5776 17.5233C34.5974 19.365 33.9698 21.1107 31.989 21.8781C31.4791 22.07 31.3026 22.3193 31.3026 22.8565C31.3222 24.0651 31.3614 25.2929 31.2045 26.5015C30.8515 29.5901 29.0276 31.4509 25.772 32.084ZM14.7696 18.9046C16.2406 18.9046 17.5153 17.6768 17.5546 16.2188C17.5938 14.7608 16.2798 13.4371 14.7696 13.4371C13.2987 13.4371 12.0044 14.6841 11.9847 16.1229C11.9455 17.5809 13.2791 18.9046 14.7696 18.9046Z" fill="#161616"/>
</svg>
