<svg width="37" height="37" viewBox="0 0 37 37" fill="none" xmlns="http://www.w3.org/2000/svg">
<path d="M18.5 37C8.29596 37 0 28.704 0 18.5C0 8.29596 8.29596 0 18.5 0C28.704 0 37 8.29596 37 18.5C37 28.704 28.704 37 18.5 37ZM18.5 1.99103C9.39103 1.99103 1.99103 9.39103 1.99103 18.5C1.99103 27.609 9.39103 35.009 18.5 35.009C27.609 35.009 35.009 27.609 35.009 18.5C35.009 9.39103 27.609 1.99103 18.5 1.99103Z" fill="black"/>
<path d="M18.5001 37C15.3311 37 12.3777 35.009 10.2042 31.3919C8.11359 27.9242 6.96875 23.3614 6.96875 18.5C6.96875 13.6386 8.11359 9.07578 10.1876 5.60807C12.3777 1.99103 15.3311 0 18.5001 0C21.6692 0 24.6226 1.99103 26.7961 5.60807C28.8701 9.05919 30.0149 13.6386 30.0149 18.5C30.0149 23.3614 28.8701 27.9242 26.7961 31.3919C24.6226 35.009 21.6692 37 18.5001 37ZM18.5001 1.99103C16.0445 1.99103 13.7051 3.63363 11.9131 6.63677C10.0051 9.78924 8.95978 14.0036 8.95978 18.5C8.95978 22.9964 10.0051 27.2108 11.9131 30.3632C13.7217 33.3664 16.0611 35.009 18.5001 35.009C20.9557 35.009 23.2952 33.3664 25.0871 30.3632C26.9786 27.2108 28.0239 22.9964 28.0239 18.5C28.0239 14.0036 26.9952 9.78924 25.0871 6.63677C23.2952 3.63363 20.9557 1.99103 18.5001 1.99103Z" fill="black"/>
<path d="M35.7212 17.5044H1.29297V19.4954H35.7212V17.5044Z" fill="black"/>
<path d="M33.5493 9.6897H2.43945V11.6807H33.5493V9.6897Z" fill="black"/>
<path d="M34.5604 25.0205H2.42188V27.0115H34.5604V25.0205Z" fill="black"/>
<path d="M19.1981 0.995605H17.207V35.4902H19.1981V0.995605Z" fill="black"/>
</svg>
