<svg width="24" height="24" viewBox="0 0 24 24" fill="none" xmlns="http://www.w3.org/2000/svg">
<path d="M0.800003 19.7523C0.800003 14.5788 0.800003 9.40728 0.800003 4.23577C0.803826 4.2114 0.811471 4.18703 0.813382 4.16267C0.830583 4.01648 0.838228 3.87029 0.863075 3.72613C1.03318 2.72715 1.46512 1.87843 2.17038 1.19418C2.96356 0.422612 3.90199 0.0104341 4.97613 0.00840363C9.72181 -0.00377897 14.4656 0.000281893 19.2094 0.00231233C19.7197 0.00231233 20.2147 0.107895 20.6906 0.306877C22.3343 0.999255 23.3874 2.64391 23.3874 4.52409C23.3893 9.50677 23.3874 14.4874 23.3874 19.4701C23.3874 19.8132 23.3549 20.1544 23.2823 20.4894C22.8389 22.5503 21.1283 23.998 19.1386 24C14.4369 24 9.73519 24 5.03347 24C4.73913 24 4.44671 23.9695 4.16002 23.9025C3.27701 23.7015 2.52779 23.2487 1.91618 22.5442C1.34471 21.8863 0.989219 21.1127 0.853519 20.2275C0.832495 20.0691 0.819116 19.9107 0.800003 19.7523ZM11.57 10.1261C11.57 11.0661 11.57 11.992 11.57 12.9301C12.0268 12.9301 12.4779 12.9301 12.9385 12.9301C12.9385 15.7016 12.9385 18.465 12.9385 21.2305C14.1177 21.2305 15.2893 21.2305 16.4705 21.2305C16.4705 18.461 16.4705 15.6976 16.4705 12.924C17.1777 12.924 17.8772 12.924 18.5805 12.924C18.6761 11.99 18.7717 11.0621 18.8691 10.124C18.0626 10.124 17.2675 10.124 16.4686 10.124C16.4686 10.0936 16.4686 10.0712 16.4686 10.0489C16.4686 9.56768 16.4667 9.08444 16.4705 8.60323C16.4724 8.41846 16.4801 8.23369 16.4992 8.04892C16.5317 7.77075 16.6712 7.57786 16.9292 7.48852C17.1089 7.42558 17.2943 7.40933 17.4797 7.4073C17.9804 7.40324 18.4831 7.40527 18.9838 7.40527C19.0106 7.40527 19.0393 7.40527 19.066 7.40527C19.066 6.46924 19.066 5.54539 19.066 4.61952C19.0507 4.61749 19.0412 4.61546 19.0316 4.61546C18.0358 4.61952 17.0401 4.61952 16.0443 4.6317C15.6295 4.63779 15.2224 4.71698 14.8287 4.85911C14.1827 5.09058 13.6743 5.50073 13.3532 6.15046C13.0627 6.73523 12.9576 7.37075 12.9423 8.02252C12.927 8.69054 12.9366 9.35652 12.9347 10.0245C12.9347 10.057 12.9347 10.0895 12.9347 10.1261C12.4759 10.1261 12.0249 10.1261 11.57 10.1261Z" fill="black"/>
</svg>
