<svg width="24" height="24" viewBox="0 0 24 24" fill="none" xmlns="http://www.w3.org/2000/svg">
<g clip-path="url(#clip0)">
<path d="M6.03752 4.18831C6.17632 4.18831 6.31511 4.18831 6.43077 4.18831C12.0519 4.18831 17.6499 4.18831 23.2711 4.18831C23.9419 4.18831 24.1038 4.42175 23.9419 5.07537C23.2711 7.73655 22.6234 10.4211 21.9525 13.0823C21.8137 13.5958 21.6981 13.6892 21.1892 13.6892C17.0485 13.6892 12.9309 13.6892 8.79026 13.6892C8.6746 13.6892 8.55894 13.6892 8.44328 13.6892C8.53581 14.6696 9.16038 15.2766 10.1088 15.2766C13.648 15.2766 17.1641 15.2766 20.7034 15.2766C20.7496 15.2766 20.819 15.2766 20.8653 15.2766C21.1892 15.2999 21.4205 15.51 21.4205 15.8135C21.4205 16.117 21.1892 16.327 20.8653 16.327C19.6393 16.327 18.4364 16.327 17.2104 16.327C14.8278 16.327 12.4452 16.3037 10.0625 16.327C8.97532 16.327 8.16569 15.8835 7.77244 14.8797C7.40233 13.9226 7.171 12.9189 6.87028 11.9384C6.84715 11.845 6.82402 11.7283 6.77775 11.5883C6.19945 11.5883 5.62114 11.5883 5.06597 11.5883C4.67272 11.5883 4.25634 11.5883 3.86309 11.5883C3.40044 11.5883 3.14599 11.4015 3.14599 11.0514C3.14599 10.7012 3.37731 10.5378 3.83996 10.5378C4.60332 10.5378 5.38982 10.5378 6.15318 10.5378C6.26884 10.5378 6.36137 10.5378 6.5233 10.5378C6.43077 10.1876 6.36137 9.83749 6.26884 9.48733C5.94499 9.48733 5.62114 9.48733 5.32042 9.48733C4.95031 9.48733 4.74211 9.27724 4.71898 8.97377C4.71898 8.64696 4.95031 8.43687 5.32042 8.43687C5.50548 8.43687 5.71367 8.43687 5.89873 8.43687C5.92186 8.43687 5.94499 8.41352 5.99126 8.41352C5.92186 8.08671 5.82933 7.7599 5.7368 7.3864C5.59801 7.3864 5.48235 7.3864 5.34355 7.3864C4.09441 7.3864 2.8684 7.3864 1.61926 7.3864C1.27227 7.3864 1.04095 7.17631 1.04095 6.84949C1.04095 6.54602 1.27227 6.33593 1.61926 6.33593C1.66552 6.33593 1.73492 6.33593 1.78118 6.33593C2.89153 6.33593 4.02501 6.33593 5.13536 6.33593C5.22789 6.33593 5.29729 6.33593 5.43608 6.33593C5.29729 5.72899 5.1585 5.16874 4.99657 4.6085C4.81151 3.93153 4.62645 3.25456 4.39513 2.60094C4.14068 1.90062 3.6549 1.55047 2.8684 1.59715C2.12817 1.64384 1.3648 1.59715 0.624571 1.59715C0.231323 1.55047 0 1.36372 0 1.03691C0 0.710094 0.231323 0.5 0.647703 0.5C1.48047 0.5 2.31323 0.5 3.14599 0.5C4.04815 0.5 4.76525 0.8735 5.13536 1.69053C5.45922 2.3675 5.66741 3.1145 5.92186 3.83815C5.96813 3.93153 5.99126 4.04825 6.03752 4.18831ZM6.54643 6.28924C6.68523 6.28924 6.80089 6.28924 6.91655 6.28924C7.70305 6.28924 8.51267 6.28924 9.29917 6.28924C9.69242 6.28924 9.92374 6.47599 9.92374 6.80281C9.92374 7.12962 9.69242 7.33971 9.27604 7.33971C9.16038 7.33971 9.04472 7.33971 8.90592 7.33971C8.21195 7.33971 7.51799 7.33971 6.80089 7.33971C6.89342 7.71321 6.98594 8.04002 7.05534 8.39018C7.63365 8.39018 8.18882 8.39018 8.744 8.39018C9.16038 8.39018 9.3917 8.57693 9.3917 8.92708C9.3917 9.2539 9.16038 9.44065 8.744 9.46399C8.28135 9.46399 7.81871 9.46399 7.33293 9.46399C7.42546 9.83749 7.51799 10.1876 7.58738 10.5145C7.74931 10.5145 7.86497 10.5145 7.98063 10.5145C8.79026 10.5145 9.59989 10.4911 10.3864 10.5378C10.5714 10.5378 10.8028 10.7012 10.8953 10.8646C10.9647 10.9813 10.9184 11.2615 10.8259 11.3548C10.7102 11.4716 10.502 11.5649 10.317 11.5649C9.50736 11.5883 8.69773 11.5649 7.84184 11.5649C7.93437 11.9384 8.00376 12.2652 8.09629 12.6154C12.3989 12.6154 16.6784 12.6154 20.981 12.6154C21.5824 10.1643 22.1838 7.71321 22.8084 5.28546C17.2798 5.28546 11.7975 5.28546 6.29198 5.28546C6.36137 5.61228 6.4539 5.93909 6.54643 6.28924Z" fill="black"/>
<path d="M8.47061 21.351C8.47061 20.1824 9.41179 19.2047 10.5647 19.2047C11.7412 19.2047 12.7059 20.1586 12.7059 21.351C12.7059 22.5434 11.7647 23.5211 10.5883 23.5211C9.43532 23.4973 8.47061 22.5434 8.47061 21.351ZM10.6118 22.4241C11.1765 22.4241 11.6706 21.9233 11.6706 21.351C11.6706 20.7548 11.2 20.2778 10.6118 20.2778C10.0236 20.2778 9.52944 20.7786 9.55296 21.3748C9.55296 21.9472 10.0236 22.4241 10.6118 22.4241Z" fill="black"/>
<path d="M17.6468 23.5211C16.4705 23.5211 15.5294 22.538 15.5294 21.3391C15.5294 20.1402 16.494 19.1811 17.6703 19.2051C18.8467 19.2051 19.7878 20.1882 19.7643 21.4111C19.7643 22.562 18.7996 23.5211 17.6468 23.5211ZM18.7055 21.3631C18.7055 20.7637 18.235 20.2841 17.6468 20.2841C17.0586 20.2841 16.5881 20.7637 16.5881 21.3391C16.5881 21.9386 17.0586 22.4421 17.6703 22.4421C18.235 22.4421 18.7055 21.9386 18.7055 21.3631Z" fill="black"/>
</g>
<defs>
<clipPath id="clip0">
<rect width="24" height="24" fill="white"/>
</clipPath>
</defs>
</svg>
