<svg width="24" height="24" viewBox="0 0 24 24" fill="none" xmlns="http://www.w3.org/2000/svg">
<path d="M12.028 1C19.3381 1.04865 24.9235 7.92021 23.8727 15.5945C23.53 18.1242 22.5477 20.3377 20.9714 22.2593C20.3889 22.9647 19.932 22.8917 19.6008 22.0282C17.4078 16.2999 10.7944 14.6823 6.48825 18.8174C5.57448 19.6931 4.912 20.7755 4.4437 21.9917C4.10104 22.9038 3.64415 22.989 3.03878 22.2228C0.0918885 18.5255 -0.753345 14.2931 0.685836 9.70803C2.17071 5.0378 5.35746 2.25269 9.86918 1.23108C10.5774 1.07297 11.3084 1.07297 12.028 1ZM9.0468 15.6553C5.86004 13.2593 5.84861 9.14857 7.77895 6.77697C9.84634 4.22294 13.3643 3.9797 15.7287 6.21752C16.8367 7.26345 17.442 8.58912 17.5448 10.1459C17.6933 12.4688 16.7681 14.281 14.9749 15.6553C17.4534 16.6282 19.281 18.2823 20.4689 20.739C23.5985 16.6526 23.7699 9.62289 19.0183 5.15942C14.6322 1.03649 7.81321 1.55945 3.88402 6.37563C0.0347777 11.0945 0.937122 17.589 3.58704 20.7025C4.76352 18.2701 6.60247 16.6282 9.0468 15.6553ZM11.9937 6.03509C9.59506 6.05941 7.72183 8.10264 7.73326 10.6688C7.7561 13.1256 9.69785 15.1688 12.0165 15.1688C14.3809 15.1688 16.3112 13.0891 16.2998 10.5472C16.2884 8.05399 14.3466 6.02293 11.9937 6.03509Z" fill="black"/>
</svg>
