<svg width="24" height="24" viewBox="0 0 24 24" fill="none" xmlns="http://www.w3.org/2000/svg">
<path d="M0 16.3945C0 13.4595 0 10.5325 0 7.59747C0.047984 7.08564 0.095968 6.57381 0.151949 6.06198C0.487837 2.94302 2.50317 0.767744 5.58214 0.231923C6.24592 0.111963 6.92569 0.071976 7.59747 0C10.5325 0 13.4595 0 16.3945 0C16.9064 0.047984 17.4262 0.095968 17.938 0.151949C21.057 0.487837 23.2243 2.50317 23.7681 5.59014C23.88 6.25392 23.92 6.92569 24 7.59747C24 10.5325 24 13.4595 24 16.3945C23.944 16.9224 23.904 17.4422 23.8401 17.97C23.5042 21.057 21.4728 23.2323 18.4099 23.7601C17.7461 23.872 17.0663 23.912 16.3945 23.992C13.4595 23.992 10.5325 23.992 7.59747 23.992C7.08564 23.944 6.56581 23.896 6.05398 23.8401C2.93502 23.5042 0.767744 21.4888 0.223925 18.4019C0.111963 17.7381 0.071976 17.0663 0 16.3945ZM21.7448 11.996C21.7448 10.3326 21.7767 8.66111 21.7368 6.99767C21.7128 5.86205 21.4648 4.77441 20.7291 3.86271C19.8094 2.71909 18.5378 2.28724 17.1623 2.27124C13.7234 2.22326 10.2846 2.23126 6.85371 2.27124C5.75808 2.27124 4.71043 2.55915 3.83872 3.27891C2.7031 4.2066 2.27924 5.47817 2.26325 6.86171C2.21526 10.2846 2.22326 13.7074 2.26325 17.1303C2.27124 18.2499 2.56714 19.3216 3.32689 20.2093C4.23859 21.2889 5.47817 21.7048 6.81373 21.7208C10.2606 21.7687 13.7154 21.8167 17.1623 21.7128C20.0573 21.6248 21.6248 19.9693 21.7288 17.0663C21.8007 15.3789 21.7448 13.6834 21.7448 11.996Z" fill="black"/>
<path d="M18.1618 12.0284C18.1458 15.4512 15.3628 18.1943 11.9479 18.1623C8.54103 18.1303 5.81394 15.3712 5.82993 11.9724C5.84593 8.55751 8.629 5.80642 12.0439 5.83841C15.4507 5.8624 18.1778 8.62948 18.1618 12.0284ZM15.9866 11.9964C15.9866 9.79709 14.1951 8.00569 11.9959 8.00569C9.79661 8.00569 8.00521 9.79709 8.00521 11.9964C8.00521 14.1956 9.79661 15.987 11.9959 15.987C14.2031 15.987 15.9866 14.1956 15.9866 11.9964Z" fill="black"/>
<path d="M18.3857 7.03828C17.586 7.03029 16.9462 6.3825 16.9542 5.58277C16.9622 4.78304 17.61 4.15125 18.4097 4.15125C19.2095 4.15924 19.8412 4.79903 19.8412 5.60676C19.8332 6.40649 19.1855 7.04628 18.3857 7.03828Z" fill="black"/>
</svg>
