<svg width="24" height="24" viewBox="0 0 24 24" fill="none" xmlns="http://www.w3.org/2000/svg">
<path d="M2 22.0022C2.64973 20.0508 3.27625 18.2271 3.84476 16.3918C4.0536 15.7181 4.40166 15.1954 4.88896 14.6959C8.7409 10.8047 12.5696 6.89016 16.41 2.99889C18.1735 1.21007 21.1669 1.93025 21.8514 4.31147C22.2343 5.62405 21.863 6.75077 20.9001 7.69165C17.8023 10.7466 14.7045 13.8015 11.6067 16.8565C11.0149 17.4372 10.3768 17.9832 9.83152 18.6104C9.03096 19.5397 8.04477 20.0856 6.88454 20.4225C5.39946 20.8523 3.94918 21.375 2.48729 21.8628C2.38287 21.9093 2.25525 21.9325 2 22.0022ZM8.91494 17.2282C8.98455 17.1585 9.12378 17.0307 9.26301 16.9029C11.7575 14.452 14.252 11.9895 16.7465 9.53855C17.3846 8.9113 17.4542 8.55121 16.8857 7.86588C16.5492 7.45933 16.0967 7.14571 15.6442 6.86693C15.3078 6.64623 14.9945 6.75077 14.6813 7.07601C12.1172 9.71278 9.54146 12.3147 6.96576 14.9399C6.87294 15.0328 6.81493 15.1373 6.82653 15.1257C7.52267 15.8343 8.1956 16.508 8.91494 17.2282ZM18.6376 7.70326C19.1365 7.18055 19.6122 6.75077 20.0183 6.26291C20.5752 5.61243 20.5172 4.71802 19.9255 4.10239C19.3338 3.48675 18.4404 3.39383 17.7791 3.95138C17.2686 4.38117 16.8161 4.88064 16.3172 5.3685C17.3962 5.89121 18.1387 6.61138 18.6376 7.70326ZM5.50388 16.6125C5.34145 17.1004 5.16741 17.6115 5.01658 18.0529C5.52708 18.9589 6.21162 19.1447 7.07018 18.6569C7.10499 18.6337 7.1514 18.6337 7.1746 18.6104C7.25582 18.471 7.40665 18.3084 7.38344 18.1923C7.23261 17.5069 6.25802 16.7054 5.50388 16.6125Z" fill="black"/>
</svg>
