<svg width="24" height="24" viewBox="0 0 24 24" fill="none" xmlns="http://www.w3.org/2000/svg">
<path d="M15.1816 16.5758C11.3005 19.5225 6.05395 18.8756 3.10724 15.4258C0.160531 11.976 0.304272 6.87319 3.53846 3.639C6.62891 0.404805 11.7317 0.117321 15.2534 2.92029C18.847 5.79512 19.7094 11.1136 16.6908 15.1383C16.7627 15.2102 16.8346 15.2821 16.9065 15.4258C18.847 17.3663 20.7156 19.235 22.6561 21.1755C22.9436 21.463 23.0874 21.8223 22.9436 22.2536C22.728 22.6129 22.2968 23.0441 21.8655 22.9723C21.6499 22.9723 21.3625 22.8285 21.2187 22.6129C19.2782 20.6724 17.4095 18.8038 15.469 16.8632C15.3253 16.7914 15.2534 16.7195 15.1816 16.5758ZM9.79123 3.06403C6.12582 3.06403 3.17911 6.01074 3.10724 9.67615C3.10724 13.3416 6.05395 16.3601 9.71936 16.3601C13.3848 16.3601 16.4034 13.4134 16.4034 9.74802C16.4034 6.08261 13.4566 3.06403 9.79123 3.06403Z" fill="black"/>
</svg>
