<svg width="24" height="24" viewBox="0 0 24 24" fill="none" xmlns="http://www.w3.org/2000/svg">
<path d="M11.9926 23.0039C11.908 23.0039 11.7952 23.0039 11.7106 23.0039C11.2593 22.9476 10.808 22.8912 10.3568 22.8067C4.5747 22.018 0.372137 16.5814 1.07726 10.7785C1.75419 5.20108 6.18239 1.14474 11.7952 1.0039C16.9285 0.863054 21.6106 4.5532 22.7106 9.56728C22.8234 10.0462 22.908 10.5532 22.9927 11.0602C22.9927 11.7081 22.9927 12.356 22.9927 13.0321C22.9362 13.3419 22.8798 13.6518 22.7952 13.9898C21.7798 18.525 19.0439 21.4546 14.5029 22.6377C13.685 22.8631 12.8106 22.8912 11.9926 23.0039ZM20.7926 11.9898C20.9619 7.3701 16.9003 3.14474 11.908 3.14474C7.3388 3.14474 3.16444 7.08841 3.13624 11.9335C3.10803 17.0039 7.53624 20.7504 11.8234 20.8067C16.6465 20.8912 20.9619 16.7785 20.7926 11.9898Z" fill="black"/>
<path d="M13.5706 17.9057C12.527 17.9057 11.5398 17.9057 10.5244 17.9057C10.5244 15.4832 10.5244 13.0888 10.5244 10.6663C11.5398 10.6663 12.527 10.6663 13.5706 10.6663C13.5706 13.0606 13.5706 15.455 13.5706 17.9057Z" fill="black"/>
<path d="M12.0205 9.08875C11.0616 9.08875 10.3564 8.35635 10.3564 7.39861C10.3564 6.46903 11.118 5.73663 12.0205 5.73663C13.0077 5.73663 13.7411 6.4972 13.7411 7.42677C13.7129 8.38452 12.9513 9.11692 12.0205 9.08875Z" fill="black"/>
</svg>
