<svg width="24" height="24" viewBox="0 0 24 24" fill="none" xmlns="http://www.w3.org/2000/svg">
<path d="M11.7718 0C11.9252 0 12.0786 0 12.232 0C12.4352 0.0690206 12.6538 0.115034 12.8417 0.214731C13.551 0.582841 13.8731 1.19252 13.8731 1.97859C13.877 4.60904 13.8731 7.24333 13.8731 9.87378C13.8731 9.95431 13.8731 10.0348 13.8731 10.1269C13.9767 10.1269 14.0534 10.1269 14.1262 10.1269C16.7528 10.1269 19.3756 10.1269 22.0022 10.1269C22.5812 10.1269 23.0797 10.3071 23.4862 10.7212C23.7738 11.0126 23.9003 11.3884 24 11.7718C24 11.9252 24 12.0786 24 12.232C23.931 12.4352 23.885 12.6538 23.7853 12.8417C23.4172 13.551 22.8036 13.8731 22.0214 13.8731C19.3833 13.877 16.7452 13.8731 14.107 13.8731C14.0342 13.8731 13.9575 13.8731 13.8731 13.8731C13.8731 13.9767 13.8731 14.0495 13.8731 14.1262C13.8731 16.7528 13.8731 19.3756 13.8731 22.0022C13.8731 22.5774 13.6968 23.0797 13.2788 23.4862C12.9835 23.7738 12.6116 23.9003 12.2282 24C12.0748 24 11.9214 24 11.768 24C11.3846 23.9003 11.0126 23.7738 10.7174 23.4862C10.2994 23.0797 10.123 22.5774 10.123 22.0022C10.1269 19.3756 10.123 16.7528 10.123 14.1262C10.123 14.0457 10.123 13.9652 10.123 13.8731C10.0195 13.8731 9.94664 13.8731 9.86995 13.8731C7.23949 13.8731 4.60521 13.8731 1.97476 13.8731C1.40725 13.8731 0.912606 13.6929 0.509986 13.2788C0.226234 12.9874 0.0996964 12.6193 0 12.232C0 12.0786 0 11.9252 0 11.7718C0.0690206 11.5686 0.115034 11.3501 0.214731 11.1622C0.582841 10.4528 1.19252 10.1307 1.97859 10.1307C4.60904 10.1269 7.23949 10.1307 9.87378 10.1307C9.95431 10.1307 10.0348 10.1307 10.1269 10.1307C10.1269 10.0272 10.1269 9.95047 10.1269 9.87378C10.1269 7.24716 10.1269 4.62438 10.1269 1.99776C10.1269 1.31523 10.3608 0.73622 10.9359 0.356606C11.1813 0.187889 11.4919 0.115034 11.7718 0Z" fill="#161616"/>
</svg>
