<svg width="24" height="24" viewBox="0 0 24 24" fill="none" xmlns="http://www.w3.org/2000/svg">
<g clip-path="url(#clip0)">
<path d="M1.18646 5C8.42087 5 15.5787 5 22.8131 5C22.3155 5.41454 21.8562 5.75371 21.3969 6.13056C18.6026 8.31632 15.8084 10.5398 13.0524 12.7255C12.2869 13.3285 11.7127 13.3285 10.9472 12.7255C7.77015 10.2006 4.59314 7.71335 1.4544 5.22611C1.37785 5.15074 1.30129 5.11306 1.18646 5Z" fill="black"/>
<path d="M22.8131 18.6044C15.5787 18.6044 8.42087 18.6044 1.18646 18.6044C3.75104 16.5694 6.23906 14.6098 8.72709 12.6124C9.26297 13.027 9.79885 13.4415 10.2965 13.856C10.6792 14.1575 11.062 14.346 11.5213 14.4213C12.3252 14.5721 13.0141 14.3836 13.6266 13.856C14.1625 13.4415 14.6601 13.027 15.2342 12.5747C17.7605 14.5721 20.2485 16.5694 22.8131 18.6044Z" fill="black"/>
<path d="M0 17.9261C0 13.8183 0 9.786 0 5.67828C2.60285 7.7133 5.12915 9.74832 7.73201 11.7833C5.12915 13.856 2.56458 15.8534 0 17.9261Z" fill="black"/>
<path d="M24 17.9261C21.3972 15.8911 18.8326 13.856 16.268 11.821C18.8326 9.78601 21.3972 7.75099 24 5.71597C24 9.78601 24 13.8184 24 17.9261Z" fill="black"/>
</g>
<defs>
<clipPath id="clip0">
<rect width="24" height="24" fill="white"/>
</clipPath>
</defs>
</svg>
