<svg width="24" height="24" viewBox="0 0 24 24" fill="none" xmlns="http://www.w3.org/2000/svg">
<path d="M0 23.9999C0.779582 21.6585 1.53132 19.4703 2.21346 17.2682C2.46404 16.4599 2.88167 15.8327 3.46636 15.2334C8.08817 10.5644 12.6821 5.86753 17.29 1.19854C19.406 -0.947804 22.9977 -0.0836929 23.819 2.77345C24.2784 4.34836 23.8329 5.70028 22.6775 6.8292C18.9606 10.4947 15.2436 14.1602 11.5267 17.8257C10.8167 18.5226 10.051 19.1776 9.39675 19.9302C8.43619 21.0452 7.2529 21.7003 5.86079 22.1045C4.07889 22.6201 2.33875 23.2473 0.584687 23.8327C0.459397 23.8884 0.306264 23.9163 0 23.9999ZM8.29698 18.2717C8.38051 18.1881 8.54756 18.0348 8.71462 17.8815C11.7077 14.9407 14.7007 11.986 17.6937 9.04523C18.4594 8.29262 18.5429 7.86056 17.8608 7.03826C17.4571 6.55045 16.9142 6.17415 16.3712 5.83965C15.9675 5.57484 15.5916 5.70028 15.2158 6.09052C12.1392 9.25429 9.04872 12.3762 5.95824 15.5261C5.84687 15.6376 5.77726 15.763 5.79118 15.7491C6.62645 16.5992 7.43387 17.4076 8.29698 18.2717ZM19.9629 6.84314C20.5615 6.21596 21.1323 5.70028 21.6195 5.11491C22.2877 4.33443 22.2181 3.26126 21.5081 2.52258C20.7981 1.7839 19.7262 1.6724 18.9327 2.34139C18.3202 2.85707 17.7773 3.45638 17.1787 4.04174C18.4733 4.66892 19.3643 5.53303 19.9629 6.84314ZM4.20418 17.533C4.00928 18.1184 3.80046 18.7316 3.61949 19.2613C4.23202 20.3484 5.05336 20.5714 6.08353 19.986C6.12529 19.9581 6.18097 19.9581 6.20882 19.9302C6.30626 19.763 6.48724 19.5679 6.4594 19.4285C6.27842 18.6062 5.10905 17.6445 4.20418 17.533Z" fill="black"/>
</svg>
