<svg width="24" height="24" viewBox="0 0 24 24" fill="none" xmlns="http://www.w3.org/2000/svg">
<path fill-rule="evenodd" clip-rule="evenodd" d="M8.50395 4.28758C8.39195 2.9281 8.50395 1.6732 9.62394 0.836597C10.4079 0.209146 11.304 0 12.312 0C13.544 0 14.664 0.209149 15.448 1.15033C16.344 1.98693 16.344 3.13725 16.232 4.28758H22.6159C23.0639 4.28758 23.4 4.28758 23.4 4.81046C23.4 5.33333 22.9519 5.33333 22.6159 5.33333H1.78395C1.33595 5.33333 1 5.33333 1 4.81046C1 4.28758 1.44795 4.28758 1.78395 4.28758H8.50395ZM15.2239 4.28758C15.3359 3.13725 15.336 1.98693 13.992 1.46405C12.872 0.941178 11.528 0.941175 10.408 1.6732C9.40003 2.30065 9.51195 3.34641 9.62394 4.28758H15.2239Z" fill="black"/>
<path d="M11.5412 12.7095V15.9912C11.5412 16.8779 11.5412 17.7653 11.6609 18.652C11.6609 18.7737 11.6468 18.8954 11.6331 19.0136C11.6069 19.2398 11.5823 19.4528 11.6609 19.6276C11.6609 19.7163 12.0203 19.9824 12.2599 19.9824C12.4995 20.0711 12.739 19.805 12.8588 19.6276V12.7982C12.8588 12.6209 12.8588 12.4434 12.7391 12.2661C12.6193 12.1774 12.3797 12 12.2599 12C12.0203 12 11.7807 12.1774 11.6609 12.2661C11.5412 12.3548 11.5412 12.5322 11.5412 12.7095Z" fill="black"/>
<path d="M8.90588 16.044V19.3846C8.90588 19.6484 8.78609 20 8.30694 20C7.70799 20 7.58823 19.7363 7.58823 19.3846V12.6154C7.58823 12.2637 7.70802 12 8.18718 12C8.66633 12 8.78612 12.2637 8.78612 12.6154C8.90588 13.758 8.90588 14.9014 8.90588 16.044Z" fill="black"/>
<path d="M15.4941 12.6507V19.3948C15.4941 19.7406 15.6259 20 16.1529 20C16.68 20 16.8118 19.7406 16.8118 19.3948V12.6507C16.8118 12.2184 16.4165 11.8726 16.0212 12.0455C15.7577 12.1319 15.4941 12.4778 15.4941 12.6507Z" fill="black"/>
<path fill-rule="evenodd" clip-rule="evenodd" d="M6.38927 24C6.33332 24 6.27734 23.9734 6.22137 23.9468C6.1654 23.9202 6.10943 23.8937 6.05348 23.8937C4.59861 23.4683 3.70333 22.2986 3.70333 20.8098V7.73006H1.80086C1.35321 7.73006 0.905478 7.73006 1.01739 7.19836C1.01739 6.66667 1.46512 6.66667 1.80086 6.66667H22.6167C23.0643 6.66667 23.4 6.66667 23.4 7.19836C23.4 7.73006 22.9524 7.73006 22.6167 7.73006H20.7142V8.47443C20.7142 9.75051 20.7018 11.0266 20.6893 12.3027C20.6645 14.8547 20.6396 17.407 20.7142 19.9591C20.7142 21.9795 20.0427 23.2556 18.0283 23.8937C14.1113 24 10.1943 24 6.38927 24ZM4.82246 7.8364V20.3845C4.82246 22.0859 5.60593 22.8303 7.28463 22.8303H16.9091C18.5878 22.8303 19.3712 22.0859 19.3712 20.4908V7.8364H4.82246Z" fill="black"/>
</svg>
