<svg width="35" height="35" viewBox="0 0 35 35" fill="none" xmlns="http://www.w3.org/2000/svg">
<path d="M0.0231139 10.8497C0.161797 10.1704 0.254253 9.46769 0.439163 8.78839C0.739644 7.6406 1.24815 6.58651 1.91845 5.6027C2.63498 4.52519 3.49019 3.61165 4.48409 2.83865C5.10816 2.34674 5.77847 1.94853 6.47188 1.57374C7.18841 1.19896 7.95117 0.917865 8.69081 0.613351C8.89884 0.519654 9.15309 0.519654 9.36112 0.449382C11.3258 -0.0893744 13.3136 -0.112799 15.3014 0.21514C16.2722 0.379109 17.2429 0.589927 18.1444 1.08183C18.7453 1.38635 19.3925 1.64401 19.9704 1.99538C20.5482 2.34674 21.1261 2.72153 21.6115 3.19001C22.2818 3.79904 22.9058 4.47834 23.4606 5.20449C24.5932 6.68021 25.2635 8.34333 25.5408 10.1938C25.8413 12.1849 25.5408 14.1057 24.755 15.9328C24.2002 17.1977 23.4375 18.3455 22.4667 19.3293C21.7733 20.0554 21.0336 20.7113 20.1553 21.2032C19.485 21.578 18.7916 21.9293 18.0982 22.2573C17.2198 22.6789 16.2722 22.8663 15.3245 23.0771C13.8452 23.3816 12.389 23.3582 10.9097 23.1708C10.4244 23.1006 9.96208 22.96 9.4998 22.8663C9.338 22.8429 9.12998 22.8897 9.01441 22.9834C8.22854 23.6393 7.48889 24.3186 6.70302 24.9745C6.21763 25.3961 5.73224 25.7943 5.24685 26.216C4.57655 26.8016 3.90624 27.3872 3.23594 27.9494C2.98169 28.1602 2.70432 28.371 2.40384 28.535C3.44397 26.0989 4.48409 23.6393 5.47799 21.2735C4.76146 20.6644 4.02181 20.1491 3.39774 19.5167C2.72744 18.8374 2.12648 18.0644 1.61797 17.2679C0.785872 16.003 0.30048 14.5742 0.0924555 13.0516C0.0693416 12.8408 0.0231139 12.6065 0 12.3957C0.0231139 11.8804 0.0231139 11.365 0.0231139 10.8497ZM19.7161 12.911C19.7161 11.7867 19.7161 10.6857 19.7161 9.58481C18.8147 9.58481 17.9364 9.58481 17.058 9.58481C17.058 10.7092 17.058 11.7867 17.058 12.911C17.9595 12.911 18.8147 12.911 19.7161 12.911ZM8.80638 9.58481C7.90494 9.58481 7.02662 9.58481 6.14829 9.58481C6.14829 10.7092 6.14829 11.7867 6.14829 12.8876C7.04973 12.8876 7.92806 12.8876 8.80638 12.8876C8.80638 11.7867 8.80638 10.7092 8.80638 9.58481ZM14.2613 12.911C14.2613 11.7867 14.2613 10.6857 14.2613 9.58481C13.3598 9.58481 12.5046 9.58481 11.6263 9.58481C11.6263 10.7092 11.6263 11.8101 11.6263 12.911C12.5046 12.911 13.3829 12.911 14.2613 12.911Z" fill="#161616"/>
<path d="M27.6442 9.30368C30.6028 10.6389 33.7694 13.8245 34.0467 18.2751C34.301 22.5618 32.2901 25.6772 28.8923 28.0196C29.8862 30.3386 30.857 32.6576 31.8509 34.9766C31.8278 34.9766 31.8278 35 31.8047 35C30.8108 34.1567 29.7938 33.3135 28.7999 32.4468C27.8753 31.6503 26.9508 30.8305 26.0262 30.0341C25.8644 29.8935 25.7026 29.7296 25.5177 29.6124C25.4252 29.5656 25.2866 29.5422 25.1941 29.5656C24.5007 29.6827 23.8073 29.8467 23.1139 29.9169C21.8888 30.0575 20.6638 30.0106 19.485 29.753C18.5835 29.5656 17.7283 29.2376 16.8731 28.9097C16.3646 28.7223 15.8792 28.4412 15.4169 28.1836C14.3075 27.5745 13.3829 26.7547 12.5277 25.7709C12.6433 25.7709 12.6895 25.7709 12.7588 25.7709C13.9145 25.7943 15.0471 25.6069 16.1797 25.3961C17.0349 25.2321 17.867 24.9745 18.676 24.6699C19.7624 24.2483 20.8256 23.733 21.7501 23.0302C22.328 22.6086 22.9521 22.2104 23.4837 21.7185C24.1078 21.1329 24.7087 20.5004 25.2172 19.8211C26.2111 18.5562 26.9508 17.1274 27.413 15.5579C27.8522 14.1056 28.0371 12.6299 27.9215 11.1073C27.806 10.5217 27.7135 9.93613 27.6442 9.30368Z" fill="#161616"/>
</svg>
