<svg width="35" height="35" viewBox="0 0 35 35" fill="none" xmlns="http://www.w3.org/2000/svg">
<path d="M0 28.8055C0 21.2607 0 13.7189 0 6.17716C0.00592295 6.14163 0.0177688 6.10609 0.0207303 6.07056C0.0473836 5.85736 0.0592295 5.64417 0.0977286 5.43393C0.3613 3.9771 1.03059 2.73938 2.12338 1.74151C3.35239 0.616309 4.80647 0.0152163 6.47082 0.0122553C13.8242 -0.005511 21.1745 0.000411094 28.5249 0.00337214C29.3156 0.00337214 30.0826 0.157347 30.82 0.447529C33.3669 1.45725 34.9987 3.8557 34.9987 6.59763C35.0016 13.864 34.9987 21.1275 34.9987 28.3939C34.9987 28.8943 34.9483 29.3918 34.8358 29.8803C34.1487 32.8858 31.4982 34.997 28.4153 35C21.1301 35 13.8449 35 6.55966 35C6.1036 35 5.65049 34.9556 5.20627 34.8579C3.83807 34.5647 2.67717 33.9044 1.7295 32.8769C0.84402 31.9176 0.293186 30.7894 0.0829212 29.4984C0.050345 29.2674 0.0296147 29.0364 0 28.8055ZM16.6879 14.7672C16.6879 16.1381 16.6879 17.4884 16.6879 18.8564C17.3957 18.8564 18.0946 18.8564 18.8083 18.8564C18.8083 22.8982 18.8083 26.9282 18.8083 30.9611C20.6355 30.9611 22.4509 30.9611 24.2811 30.9611C24.2811 26.9223 24.2811 22.8923 24.2811 18.8475C25.3769 18.8475 26.4608 18.8475 27.5506 18.8475C27.6987 17.4854 27.8467 16.1322 27.9978 14.7642C26.748 14.7642 25.516 14.7642 24.2782 14.7642C24.2782 14.7198 24.2782 14.6872 24.2782 14.6546C24.2782 13.9529 24.2752 13.2481 24.2811 12.5464C24.2841 12.2769 24.2959 12.0075 24.3255 11.738C24.3759 11.3323 24.5921 11.051 24.9919 10.9208C25.2702 10.829 25.5575 10.8053 25.8448 10.8023C26.6207 10.7964 27.3995 10.7994 28.1755 10.7994C28.2169 10.7994 28.2613 10.7994 28.3028 10.7994C28.3028 9.43431 28.3028 8.08703 28.3028 6.7368C28.2791 6.73383 28.2643 6.73087 28.2495 6.73087C26.7066 6.7368 25.1636 6.7368 23.6207 6.75456C22.9781 6.76345 22.3473 6.87893 21.7372 7.0862C20.7362 7.42376 19.9485 8.02189 19.451 8.96943C19.0008 9.82221 18.8379 10.749 18.8142 11.6995C18.7905 12.6737 18.8054 13.6449 18.8024 14.6191C18.8024 14.6665 18.8024 14.7139 18.8024 14.7672C18.0916 14.7672 17.3927 14.7672 16.6879 14.7672Z" fill="#161616"/>
</svg>
