<svg width="24" height="24" viewBox="0 0 24 24" fill="none" xmlns="http://www.w3.org/2000/svg">
<path d="M23.348 1.90161C22.9569 3.16838 22.2614 4.10338 21.2934 4.82293C22.2219 4.72814 23.0991 4.44376 23.9526 4.05167C23.9684 4.07321 23.9842 4.09476 24 4.12061C23.6049 4.62473 23.2295 5.1504 22.8067 5.62436C22.459 6.01214 22.052 6.33961 21.6806 6.70585C21.6134 6.77048 21.5581 6.89543 21.5621 6.99023C21.6292 10.9801 20.4715 14.509 18.1482 17.5768C16.5598 19.6751 14.5644 21.153 12.2055 22.0277C10.5183 22.6525 8.77972 22.9024 6.99769 22.8291C5.16036 22.7559 3.40204 22.3164 1.73066 21.4805C1.15772 21.1961 0.616398 20.8342 0.0632203 20.5067C0.0474152 20.4981 0.0395127 20.4809 0 20.4335C2.09022 20.6489 4.04215 20.2482 5.85973 19.1753C6.32598 18.8996 6.75667 18.5635 7.19526 18.2317C4.95884 17.999 3.44946 16.7667 2.61179 14.4486C3.37438 14.5865 4.08561 14.5693 4.80869 14.3538C1.88475 13.5912 0.794205 10.713 0.924597 9.01964C1.59631 9.3945 2.29569 9.63148 3.1136 9.66164C2.03095 8.81282 1.33948 7.73995 1.05894 6.37408C0.782351 5.01683 0.968061 3.73282 1.60026 2.49622C4.27527 5.93028 7.64965 7.80458 11.7708 8.12342C11.7392 7.77442 11.6997 7.45126 11.6839 7.1238C11.6207 5.92166 11.9091 4.81432 12.5413 3.83192C13.4659 2.40143 14.7422 1.60862 16.3464 1.50952C17.7491 1.42334 18.974 1.92316 19.9974 2.97449C20.1515 3.13391 20.2819 3.18562 20.4952 3.1296C21.3961 2.88831 22.2575 2.55223 23.0635 2.05673C23.1426 2.01364 23.2176 1.97486 23.348 1.90161Z" fill="black"/>
</svg>
