<svg width="120" height="120" viewBox="0 0 120 120" fill="none" xmlns="http://www.w3.org/2000/svg">
<path d="M16 114V30.6667C16 30.6667 16.6481 22 24.4259 22H30V114H16Z" fill="#FF9077"/>
<path d="M57.6776 4.04478H35.8034C35.8034 4.04478 30 3.15301 30 10.2872C30 17.4213 30 114 30 114H85.8016V11.6248C85.8016 11.6248 87.5872 3.95561 80.4446 4.00019C73.302 4.04478 57.6776 4.04478 57.6776 4.04478Z" fill="#D2D2D2"/>
<path d="M100 114V42.4285C100 42.4285 99.3056 35 90.9722 35H85V114H100Z" fill="#FF9077"/>
<path d="M48.8 71H46.2C43.34 71 41 68.66 41 65.8V63.2C41 60.34 43.34 58 46.2 58H48.8C51.66 58 54 60.34 54 63.2V65.8C54 68.66 51.66 71 48.8 71Z" fill="#DB3028"/>
<path d="M70.8 71H68.2C65.34 71 63 68.66 63 65.8V63.2C63 60.34 65.34 58 68.2 58H70.8C73.66 58 76 60.34 76 63.2V65.8C76 68.66 73.66 71 70.8 71Z" fill="#DB3028"/>
<path d="M74.4194 87H43.5806C42.1613 87 41 85.875 41 84.5C41 83.125 42.1613 82 43.5806 82H74.4194C75.8387 82 77 83.125 77 84.5C77 85.875 75.8387 87 74.4194 87Z" fill="#00A1BD"/>
<path d="M59 88H47V114H59V88Z" fill="#FDDB7F"/>
<path fill-rule="evenodd" clip-rule="evenodd" d="M46 87H60V115H46V87ZM48 89V113H58V89H48Z" fill="black"/>
<path d="M71 88H58V114H71V88Z" fill="#FDDB7F"/>
<path fill-rule="evenodd" clip-rule="evenodd" d="M57 87H72V115H57V87ZM59 89V113H70V89H59Z" fill="black"/>
<path fill-rule="evenodd" clip-rule="evenodd" d="M120 116.5H0V111.5H120V116.5Z" fill="black"/>
<path fill-rule="evenodd" clip-rule="evenodd" d="M9 111V85H13V111H9Z" fill="black"/>
<path d="M11 85C16.5228 85 21 80.7467 21 75.5C21 70.2533 16.5228 66 11 66C5.47715 66 1 70.2533 1 75.5C1 80.7467 5.47715 85 11 85Z" fill="#4BC172"/>
<path d="M110 98C115.523 98 120 93.5228 120 88C120 82.4772 115.523 78 110 78C104.477 78 100 82.4772 100 88C100 93.5228 104.477 98 110 98Z" fill="#4BC172"/>
<path d="M48.8 26H46.2C43.34 26 41 23.66 41 20.8V18.2C41 15.34 43.34 13 46.2 13H48.8C51.66 13 54 15.34 54 18.2V20.8C54 23.66 51.66 26 48.8 26Z" fill="#DB3028"/>
<path d="M70.8 26H68.2C65.34 26 63 23.66 63 20.8V18.2C63 15.34 65.34 13 68.2 13H70.8C73.66 13 76 15.34 76 18.2V20.8C76 23.66 73.66 26 70.8 26Z" fill="#DB3028"/>
<path d="M48.8 48H46.2C43.34 48 41 45.66 41 42.8V40.2C41 37.34 43.34 35 46.2 35H48.8C51.66 35 54 37.34 54 40.2V42.8C54 45.66 51.66 48 48.8 48Z" fill="#DB3028"/>
<path d="M70.8 48H68.2C65.34 48 63 45.66 63 42.8V40.2C63 37.34 65.34 35 68.2 35H70.8C73.66 35 76 37.34 76 40.2V42.8C76 45.66 73.66 48 70.8 48Z" fill="#DB3028"/>
<path fill-rule="evenodd" clip-rule="evenodd" d="M108 116V97H112V116H108Z" fill="black"/>
</svg>
