<svg width="102" height="102" viewBox="0 0 102 102" fill="none" xmlns="http://www.w3.org/2000/svg">
<path d="M44.1803 63.7976C44.9153 65.5059 45.5482 67.0107 46.2015 68.536C48.1002 72.9489 49.9989 77.3619 51.8977 81.7952C53.2043 84.8253 52.2447 87.4283 49.264 88.9332C46.1199 90.5194 42.9554 92.1057 39.7909 93.6512C36.708 95.1561 33.7681 94.058 32.4206 90.9262C28.6845 82.2426 24.9483 73.5793 21.2325 64.8958C20.8855 64.0823 20.4772 63.7773 19.5788 63.8179C15.2506 64.062 11.147 63.2282 7.61496 60.6048C1.67385 56.1919 -0.980255 50.2537 0.32638 42.9936C1.67385 35.5912 6.2879 30.8529 13.5969 28.8599C15.1077 28.4532 16.7614 28.3515 18.3335 28.3515C28.1945 28.3109 38.0759 28.3312 47.9369 28.3515C48.7944 28.3515 49.4681 28.1482 50.1623 27.5991C57.7367 21.5185 65.3519 15.499 72.9467 9.41847C74.4167 8.23897 76.0296 7.68989 77.867 8.17796C80.1332 8.76771 81.5828 10.72 81.5828 13.1807C81.6032 18.4274 81.6236 23.6945 81.5624 28.9413C81.5624 29.8157 81.8482 30.2225 82.5832 30.6495C88.5039 34.1067 91.7704 39.2924 91.7296 46.1457C91.6888 53.0397 88.3609 58.2051 82.3586 61.6216C81.7665 61.9674 81.5624 62.2927 81.5828 62.9638C81.6032 68.1496 81.5828 73.3353 81.6032 78.5211C81.6236 80.8191 80.807 82.6493 78.6633 83.6661C76.5604 84.6423 74.6617 84.1135 72.8855 82.7103C65.3111 76.6298 57.6958 70.6103 50.101 64.5297C49.4885 64.0416 48.8761 63.7773 48.0798 63.8179C46.8549 63.8383 45.6299 63.7976 44.1803 63.7976ZM25.5199 33.2932C25.5199 41.8955 25.5199 50.3147 25.5199 58.8356C26.0304 58.8356 26.4591 58.8356 26.8878 58.8356C34.5031 58.8356 42.1183 58.8559 49.754 58.8152C50.6727 58.8152 51.3668 59.0796 52.061 59.649C56.4505 63.1875 60.8604 66.6854 65.2703 70.2035C65.5765 70.4476 65.8827 70.6509 66.2706 70.9356C66.2706 54.3006 66.2706 37.8282 66.2706 21.1932C65.8623 21.4982 65.5561 21.7016 65.2907 21.9253C60.8195 25.4841 56.3484 29.0226 51.8977 32.6018C51.2852 33.1102 50.6523 33.3136 49.856 33.3136C42.2 33.2932 34.5439 33.2932 26.8878 33.2932C26.4795 33.2932 26.0304 33.2932 25.5199 33.2932ZM20.3547 33.4356C15.0873 32.7442 10.2486 34.5541 7.24747 38.906C4.2667 43.2377 4.28712 49.0335 7.30871 53.3041C10.3303 57.5747 15.1281 59.3846 20.3547 58.6729C20.3547 50.274 20.3547 41.8548 20.3547 33.4356ZM76.4787 79.1108C76.4787 56.985 76.4787 35.0828 76.4787 12.9977C75.0292 14.1568 73.7225 15.255 72.3751 16.2515C71.6605 16.7802 71.3543 17.3496 71.3747 18.2647C71.4359 21.7829 71.3951 25.3214 71.3951 28.8396C71.3951 43.9494 71.3951 59.0593 71.4155 74.1691C71.4155 74.5352 71.4768 75.0639 71.7013 75.2673C73.2121 76.5688 74.7842 77.7686 76.4787 79.1108ZM47.4061 84.2559C47.3448 84.0118 47.3244 83.8288 47.2428 83.6865C44.4866 77.2806 41.7304 70.895 38.9946 64.489C38.7496 63.8993 38.3617 63.7976 37.8105 63.7976C34.2377 63.8179 30.6648 63.7976 27.1124 63.8179C26.8674 63.8179 26.6224 63.879 26.2753 63.9196C29.9298 72.4405 33.5639 80.8394 37.2184 89.3399C40.6688 87.591 44.0374 85.9235 47.4061 84.2559ZM81.644 56.2122C85.2373 53.2634 86.9931 49.7046 86.7277 45.2713C86.5031 41.4684 84.7881 38.418 81.644 35.9369C81.644 42.7496 81.644 49.3385 81.644 56.2122Z" fill="#3B3B3B"/>
<path d="M87.4221 69.898C86.5034 68.5355 85.6255 67.2137 84.7476 65.8918C100.815 57.2082 101.203 35.4281 84.7272 26.2361C85.6255 24.8939 86.5238 23.5517 87.4221 22.2299C94.527 25.8904 101.918 34.574 101.999 45.8809C102.081 56.8625 95.1599 65.7901 87.4221 69.898Z" fill="#C42927"/>
</svg>
