<svg width="124" height="124" viewBox="0 0 124 124" fill="none" xmlns="http://www.w3.org/2000/svg">
<path d="M7.74923 48.7254L11.2198 61.8649C11.9505 64.7848 12.6811 67.3397 13.2291 70.0771H13.4118C13.9598 67.5222 14.8731 64.6023 15.7864 61.8649L19.9876 48.7254H24.0062L28.0248 61.6824C28.9381 64.7848 29.6687 67.5222 30.3994 70.0771H30.582C30.9474 67.5222 31.678 64.7848 32.5913 61.6824L36.2446 48.7254H40.8111L32.226 74.4569H28.0248L24.0062 62.0474C23.0929 59.1275 22.3622 56.5726 21.6316 53.4702H21.4489C20.7183 56.5726 19.9876 59.31 19.0743 62.0474L14.8731 74.2744H10.8545L3 48.7254H7.74923Z" fill="#C42927"/>
<path d="M47.7523 48.7255L51.2229 61.8649C51.9536 64.7848 52.6842 67.3397 53.2322 70.0771H53.4149C53.9629 67.5222 54.8762 64.6023 55.7895 61.8649L59.9907 48.7255H64.0093L68.0279 61.6824C68.9412 64.7848 69.6718 67.5222 70.4025 70.0771H70.5851C70.9505 67.5222 71.6811 64.7848 72.5944 61.6824L76.2477 48.7255H80.8142L72.4118 74.6394H68.2105L64.192 62.2299C63.2786 59.31 62.548 56.7551 61.8173 53.6528H61.6347C60.904 56.7551 60.1734 59.4925 59.2601 62.2299L55.0588 74.4569H50.8576L43.0031 48.543H47.7523V48.7255Z" fill="#C42927"/>
<path d="M87.9381 48.7255L91.4087 61.8649C92.1393 64.7848 92.87 67.3397 93.418 70.0771H93.6006C94.1486 67.5222 95.0619 64.6023 95.9752 61.8649L100.176 48.7255H104.195L108.214 61.6824C109.127 64.7848 109.858 67.5222 110.588 70.0771H110.771C111.136 67.5222 111.867 64.7848 112.78 61.6824L116.433 48.7255H121L112.598 74.6394H108.396L104.378 62.2299C103.464 59.31 102.734 56.7551 102.003 53.6528H101.638C100.907 56.7551 100.176 59.4925 99.2632 62.2299L95.0619 74.4569H90.8607L83.0062 48.543H87.9381V48.7255Z" fill="#C42927"/>
<path d="M11.7678 87.9614H11.5851V92.8887H14.6904C13.5944 91.2463 12.6811 89.6039 11.7678 87.9614ZM10.8545 29.1988V34.1261H12.3158C13.2291 32.4837 14.3251 30.8412 15.4211 29.1988H10.8545ZM112.05 87.9614C111.136 89.6039 110.223 91.2463 109.127 92.8887C101.82 104.021 90.3127 112.598 76.9783 116.248C72.4118 117.525 67.8452 118.073 62.9133 118.255C62.548 118.255 62.3653 118.255 62 118.255C61.6347 118.255 61.2694 118.255 60.904 118.255C60.1734 118.255 59.2601 118.255 58.5294 118.255C58.3467 118.255 58.1641 118.255 57.9814 118.255C52.5015 117.89 47.2043 116.795 42.2724 114.788C47.0217 119.533 52.5016 122.453 58.1641 123C59.0774 123 60.1734 123.182 61.0867 123.182C61.452 123.182 61.8173 123.182 62 123.182C89.7647 123.182 113.328 104.751 121 79.3843H115.885C114.789 82.3042 113.511 85.0415 112.05 87.9614ZM58.5294 4.9273C59.2601 4.9273 59.9907 4.9273 60.904 4.9273C61.2694 4.9273 61.6347 4.9273 62 4.9273C62.3653 4.9273 62.548 4.9273 62.9133 4.9273C67.8452 4.9273 72.4118 5.65727 76.9783 6.93472C89.9474 10.4021 101.09 18.6142 108.579 29.1988C109.675 30.8412 110.771 32.3012 111.684 34.1261C113.328 37.2285 114.789 40.5134 115.885 43.7982H121C113.328 18.4318 89.7647 0 62 0C61.6347 0 61.2694 0 61.0867 0C60.1734 0 59.0774 0 58.1641 0.182493C52.3189 0.72997 47.0217 3.64985 42.2724 8.39466C47.2043 6.56973 52.5015 5.47478 57.9814 4.9273C58.1641 4.9273 58.3467 4.9273 58.5294 4.9273Z" fill="#231F20"/>
<path d="M42.2724 114.605C47.0217 119.35 52.5016 122.27 58.1641 122.818C32.0433 121.175 10.3065 103.291 3 79.2018H8.11455C9.02786 82.3042 10.3065 85.0416 11.7678 87.9614H11.5851V92.8887H14.6904C21.2663 102.743 30.9474 110.408 42.2724 114.605Z" fill="#231F20"/>
<path d="M8.11455 43.7982H3C10.3065 19.7092 32.0433 1.8249 58.1641 0.182465C52.3189 0.729942 47.0217 3.64982 42.2724 8.39463C31.3127 12.4095 21.9969 19.7092 15.4211 29.1988H10.8545V34.1261H12.3158C10.6718 37.2285 9.21053 40.3308 8.11455 43.7982Z" fill="#231F20"/>
<path d="M87.5727 87.9614C87.0247 89.6039 86.4768 91.2463 85.9288 92.8887C84.6501 96.1736 83.3715 99.276 81.7275 102.196C76.4303 111.503 69.8545 116.978 62.7306 118.073C62.1826 118.255 61.452 118.255 60.904 118.255C60.7213 118.255 60.5387 118.255 60.356 118.255C59.808 118.255 59.0774 118.255 58.5294 118.073C58.3467 118.073 58.1641 118.073 57.9814 118.073C50.8576 116.978 44.2817 111.503 38.9845 102.196C37.3405 99.276 35.8792 96.1736 34.7833 92.8887C34.2353 91.2463 33.6873 89.6039 33.1393 87.9614H28.0247C28.3901 89.6039 28.9381 91.2463 29.4861 92.8887C30.9474 97.0861 32.5913 101.101 34.6006 104.568C36.7926 108.583 39.3498 112.05 42.0898 114.788C46.839 119.533 52.3189 122.453 57.9814 123C58.7121 123 59.4427 123.182 60.356 123.182C60.5387 123.182 60.7213 123.182 60.904 123.182C66.5665 123 72.0464 120.628 76.7956 116.43C80.0836 113.51 83.1888 109.496 85.9288 104.751C87.9381 101.101 89.582 97.2685 91.0433 93.0712C91.5913 91.4288 92.1393 89.7864 92.5046 88.1439C93.2353 85.4065 93.9659 82.4867 94.5139 79.3843H89.582C89.034 82.1217 88.486 85.0415 87.5727 87.9614ZM35.1486 29.1988C36.2446 26.2789 37.5232 23.5415 38.9845 20.9866C44.2817 11.6795 50.8576 6.20475 57.9814 5.10979C58.1641 5.10979 58.3467 5.10979 58.5294 5.10979C59.0774 5.10979 59.808 4.9273 60.356 4.9273C60.5387 4.9273 60.7213 4.9273 60.904 4.9273C61.452 4.9273 62.1826 4.9273 62.7306 5.10979C69.8545 6.20475 76.4303 11.6795 81.7275 20.9866C83.1888 23.5415 84.4675 26.2789 85.5634 29.1988C86.1114 30.8412 86.6594 32.4837 87.2074 34.1261C88.1207 37.2285 88.8514 40.5134 89.582 43.7982H94.5139C93.9659 40.5134 93.2353 37.2285 92.322 34.1261C91.774 32.4837 91.4086 30.8412 90.678 29.1988C89.3994 25.3665 87.7554 21.7166 85.9288 18.6142C83.1888 13.8694 80.0836 9.8546 76.7956 6.93472C71.8638 2.5549 66.5665 0.182495 60.904 0.182495C60.7213 0.182495 60.5387 0.182495 60.356 0.182495C59.6254 0.182495 58.8947 0.182495 57.9814 0.364988C52.3189 0.729973 47.0217 3.64985 42.2724 8.39466C39.5325 11.132 36.9752 14.5994 34.7833 18.6142C32.9566 21.8991 31.3127 25.549 30.034 29.1988C29.4861 30.8412 28.9381 32.4837 28.5727 34.1261H33.6873C34.0526 32.4837 34.6006 30.8412 35.1486 29.1988Z" fill="#3B3B3B"/>
<path d="M31.13 79.2018C31.678 82.1217 32.4087 85.0416 33.1393 87.9615H28.0248C27.2941 85.2241 26.5635 82.3042 26.0155 79.2018H31.13Z" fill="#3B3B3B"/>
<path d="M31.13 43.7982H26.1981C26.7461 40.5133 27.4768 37.2285 28.3901 34.1261H33.5046C32.5913 37.2285 31.678 40.5133 31.13 43.7982Z" fill="#3B3B3B"/>
<path d="M62.9133 2.37244H57.9814V43.7983H62.9133V2.37244Z" fill="#231F20"/>
<path d="M62.9133 79.2018H57.9814V120.628H62.9133V79.2018Z" fill="#231F20"/>
<path d="M111.502 29.1989H10.8545V34.1262H111.502V29.1989Z" fill="#3B3B3B"/>
<path d="M112.232 87.9614H11.5851V92.8887H112.232V87.9614Z" fill="#3B3B3B"/>
</svg>
