<svg width="124" height="124" viewBox="0 0 124 124" fill="none" xmlns="http://www.w3.org/2000/svg">
<path d="M117.322 36.6305H6.67789C3.00505 36.6305 0 33.6335 0 29.9706V7.6599C0 3.99695 3.00505 1 6.67789 1H117.322C120.995 1 124 3.99695 124 7.6599V29.9706C124 33.6335 120.995 36.6305 117.322 36.6305ZM6.67789 4.32995C4.84147 4.32995 3.33894 5.82843 3.33894 7.6599V29.9706C3.33894 31.802 4.84147 33.3005 6.67789 33.3005H117.322C119.159 33.3005 120.661 31.802 120.661 29.9706V7.6599C120.661 5.82843 119.159 4.32995 117.322 4.32995H6.67789Z" fill="black"/>
<path d="M117.322 84.665H6.67789C3.00505 84.665 0 81.668 0 78.0051V55.6944C0 52.0315 3.00505 49.0345 6.67789 49.0345H117.322C120.995 49.0345 124 52.0315 124 55.6944V78.0051C124 81.668 120.995 84.665 117.322 84.665ZM6.67789 52.3229C4.84147 52.3229 3.33894 53.8213 3.33894 55.6528V78.0051C3.33894 79.8366 4.84147 81.335 6.67789 81.335H117.322C119.159 81.335 120.661 79.8366 120.661 78.0051V55.6944C120.661 53.863 119.159 52.3645 117.322 52.3645H6.67789V52.3229Z" fill="black"/>
<path d="M17.9051 71.1786C20.3023 71.1786 22.2457 69.2405 22.2457 66.8497C22.2457 64.4589 20.3023 62.5208 17.9051 62.5208C15.5078 62.5208 13.5645 64.4589 13.5645 66.8497C13.5645 69.2405 15.5078 71.1786 17.9051 71.1786Z" fill="#C42927"/>
<path d="M35.7267 71.1786C38.1239 71.1786 40.0673 69.2405 40.0673 66.8497C40.0673 64.4589 38.1239 62.5208 35.7267 62.5208C33.3294 62.5208 31.386 64.4589 31.386 66.8497C31.386 69.2405 33.3294 71.1786 35.7267 71.1786Z" fill="#C42927"/>
<path d="M53.5066 71.1786C55.9038 71.1786 57.8472 69.2405 57.8472 66.8497C57.8472 64.4589 55.9038 62.5208 53.5066 62.5208C51.1093 62.5208 49.166 64.4589 49.166 66.8497C49.166 69.2405 51.1093 71.1786 53.5066 71.1786Z" fill="#C42927"/>
<path d="M17.9051 23.1442C20.3023 23.1442 22.2457 21.2061 22.2457 18.8153C22.2457 16.4245 20.3023 14.4863 17.9051 14.4863C15.5078 14.4863 13.5645 16.4245 13.5645 18.8153C13.5645 21.2061 15.5078 23.1442 17.9051 23.1442Z" fill="#C42927"/>
<path d="M35.7267 23.1442C38.1239 23.1442 40.0673 21.2061 40.0673 18.8153C40.0673 16.4245 38.1239 14.4863 35.7267 14.4863C33.3294 14.4863 31.386 16.4245 31.386 18.8153C31.386 21.2061 33.3294 23.1442 35.7267 23.1442Z" fill="#C42927"/>
<path d="M53.5066 23.1442C55.9038 23.1442 57.8472 21.2061 57.8472 18.8153C57.8472 16.4245 55.9038 14.4863 53.5066 14.4863C51.1093 14.4863 49.166 16.4245 49.166 18.8153C49.166 21.2061 51.1093 23.1442 53.5066 23.1442Z" fill="#C42927"/>
<path d="M77.2548 89.202V108.765C77.2548 108.765 76.6705 119.421 66.3615 119.713C56.0525 120.004 38.3144 119.713 38.3144 119.713C38.3144 119.713 36.2693 120.878 37.1457 122.668C37.1457 122.668 37.3544 123.958 38.4813 123.958C39.6082 123.958 120.202 123.958 120.202 123.958C120.202 123.958 122.289 123.168 122.289 121.586C122.289 120.004 120.202 119.629 120.202 119.629H91.4036C91.4036 119.629 81.8458 118.256 81.8458 108.557C81.8458 98.8589 81.6372 89.202 81.6372 89.202H77.2548V89.202Z" fill="black"/>
</svg>
