<svg width="135" height="115" viewBox="0 0 135 115" fill="none" xmlns="http://www.w3.org/2000/svg">
<path d="M58.3137 110.489C48.0266 106.91 39.5397 101.542 32.7245 94.2568C27.3237 88.5053 23.2089 81.4757 20.2513 73.6793C15.6221 60.6426 16.0079 49.6509 16.0079 48.6284V11.3077L58.5709 3.12781L59.3425 7.34556L20.2513 14.7586V48.6284C20.2513 48.7562 19.737 59.7479 24.3662 72.2734C27.0666 79.5586 30.9242 85.9491 35.9392 91.3172C42.2401 98.0911 50.2126 103.204 59.7282 106.527L58.3137 110.489Z" fill="#C52C29"/>
<path d="M85.3175 88.8887C86.8605 89.2722 88.5322 89.4 90.3324 89.4C89.8181 90.039 89.3037 90.8059 88.7894 91.445C88.275 92.084 87.6321 92.7231 87.1177 93.3621C86.8605 93.6177 86.6034 93.8734 86.4748 94.129C79.7881 101.414 71.1726 106.782 60.8855 110.361L59.3424 106.527C68.3437 103.459 76.059 98.7302 82.1027 92.4674C82.4885 92.084 82.7457 91.7006 83.1314 91.445C83.3886 91.1893 83.5172 91.0615 83.7744 90.8059C84.2887 90.1668 84.8031 89.5278 85.3175 88.8887Z" fill="#C52C29"/>
<path d="M102.934 53.8687C102.806 56.1692 102.42 59.1089 101.777 62.5598C99.848 64.4769 97.9192 66.3941 95.9904 68.3112C97.1477 64.4769 97.7906 60.8982 98.1764 57.8308C99.2051 56.8083 100.234 55.7858 101.263 54.7633C101.777 54.2521 102.291 53.9965 102.934 53.8687Z" fill="#C52C29"/>
<path d="M103.063 11.3077V44.6663C101.777 43.8994 100.234 43.1325 98.8193 42.6213V14.7586L59.9854 7.34556L18.5796 15.142L17.8081 10.9243L59.9854 3L103.063 11.3077Z" fill="#C52C29"/>
<path d="M57.285 110.233L59.5996 111L61.6571 110.233V105.888L58.3138 106.782" fill="#C52C29"/>
<path d="M58.4423 95.9184C40.8256 89.9113 33.1102 77.3858 29.6383 68.0557C26.0378 58.2142 26.295 49.9065 26.4236 49.0119V20.6379L58.8281 14.3752L59.5996 18.5929L30.667 24.2166V49.1397C30.667 49.2675 30.2813 57.3196 33.7532 66.6497C38.2538 78.9196 47.1265 87.4829 59.8568 91.8284L58.4423 95.9184Z" fill="#C52C29"/>
<path d="M74.2588 83.2651C75.2875 84.1598 76.4448 85.0545 77.7307 85.8213C77.2164 86.3326 76.702 86.8438 76.0591 87.3551C75.5447 87.8663 74.9018 88.2497 74.3874 88.761C70.6583 91.5728 66.1577 94.129 60.6284 96.0462L59.2139 92.0841C63.5859 90.5503 67.5722 88.6332 70.9155 86.077C71.5584 85.6935 72.0728 85.1823 72.5872 84.7989C73.2301 84.2876 73.7445 83.7764 74.2588 83.2651Z" fill="#C52C29"/>
<path d="M90.0753 65.8829C89.8181 66.6497 89.5609 67.2888 89.3038 68.0557C88.275 70.7397 86.9891 73.8071 85.0603 76.7468C84.546 76.619 84.1602 76.2356 83.6458 75.7243C83.0029 75.0853 82.3599 74.574 81.8456 73.935C82.8743 72.1456 83.7744 70.3563 84.546 68.4391C85.0603 68.9503 85.5747 69.4616 85.9604 69.845C87.5035 68.5669 88.7894 67.161 90.0753 65.8829Z" fill="#C52C29"/>
<path d="M92.6471 20.6379V41.3432C92.0041 41.3432 91.2326 41.2154 90.5897 41.2154C89.8181 41.2154 89.1752 41.2154 88.4036 41.3432V24.2166L59.8568 18.7207L28.8668 24.4722L28.0953 20.2545L59.8568 14.2474L92.6471 20.6379Z" fill="#C52C29"/>
<path d="M57.928 95.6627L59.5996 96.5574L61.1427 95.6627V91.5728L58.6995 92.4675" fill="#C52C29"/>
<path d="M103.063 42.2379C101.648 41.471 100.234 40.9598 98.8194 40.4485C96.8905 39.8095 94.8331 39.426 92.6471 39.1704C92.0041 39.1704 91.2326 39.0426 90.5897 39.0426C89.8181 39.0426 89.1752 39.0426 88.4036 39.1704C74.7732 40.3207 64.1003 51.568 64.1003 65.3716C64.1003 73.0402 67.4436 79.942 72.5872 84.671C73.6159 85.6935 74.7732 86.5882 76.0591 87.355C78.3737 88.8888 80.9455 90.039 83.7744 90.8059C85.3175 91.1893 86.9892 91.445 88.6608 91.5728C89.3038 91.5728 89.9467 91.7006 90.5897 91.7006C105.12 91.7006 116.95 79.942 116.95 65.4994C116.95 55.4024 111.293 46.7112 103.063 42.2379ZM90.4611 89.5278C90.3325 89.5278 90.3325 89.5278 90.2039 89.5278C88.5322 89.5278 86.8606 89.2722 85.1889 89.0166C82.4885 88.3775 79.9168 87.355 77.6022 85.9491C76.4448 85.1822 75.2875 84.2876 74.1302 83.3929C69.2439 78.9195 66.0291 72.529 66.0291 65.4994C66.0291 52.8462 75.8019 42.4935 88.1465 41.471C88.918 41.3432 89.561 41.3432 90.3325 41.3432C91.104 41.3432 91.747 41.3432 92.3899 41.471C94.5759 41.5988 96.6334 42.1101 98.5622 42.7491C100.105 43.2604 101.52 43.8994 102.806 44.7941C109.878 49.0118 114.636 56.6805 114.636 65.4994C114.764 78.6639 103.963 89.5278 90.4611 89.5278ZM102.934 53.8686C102.42 53.9964 101.777 54.2521 101.263 54.7633C100.234 55.7858 99.2051 56.8083 98.1764 57.8308C95.6046 60.387 93.0329 62.9432 90.3325 65.6272C90.2039 65.755 90.0753 65.8828 89.9467 66.0106C88.6608 67.2888 87.3749 68.6947 85.9605 70.1006C85.4461 69.5893 84.9317 69.0781 84.546 68.6947C82.8743 67.0331 81.3312 65.4994 79.6596 63.8379C78.2451 62.4319 76.5734 62.432 75.2875 63.5822C74.0016 64.8604 74.1302 66.5219 75.5447 67.9278C77.6022 69.9728 79.6596 72.0177 81.717 74.0627C82.36 74.7018 82.8743 75.213 83.5173 75.8521C84.0316 76.3633 84.4174 76.6189 84.9317 76.8746C85.9605 77.258 87.1178 77.0024 88.1465 75.9799C90.7183 73.4237 93.29 70.8675 95.8618 68.3112C97.7907 66.3941 99.7195 64.4769 101.648 62.5598C102.806 61.2817 104.092 60.1314 105.249 58.8533C106.535 57.5751 106.663 55.7858 105.377 54.6355C104.863 53.8686 103.834 53.613 102.934 53.8686Z" fill="white"/>
<path d="M103.063 39.8095C101.648 39.1704 100.234 38.5314 98.8194 38.1479C96.8905 37.5089 94.8331 37.1254 92.6471 36.9976C92.0041 36.9976 91.2326 36.8698 90.5897 36.8698C89.8181 36.8698 89.1752 36.8698 88.4036 36.9976C73.6159 38.1479 62.0428 50.4177 62.0428 65.2438C62.0428 73.2959 65.5148 80.7089 71.0441 85.8213C72.0728 86.8438 73.2301 87.7385 74.3874 88.5053C76.702 90.1669 79.4024 91.445 82.2314 92.2118C83.7744 92.7231 85.4461 93.1065 87.1178 93.2343C88.2751 93.3621 89.4324 93.4899 90.7183 93.4899C106.406 93.4899 119.265 80.7089 119.265 65.116C119.008 54.1242 112.45 44.4106 103.063 39.8095ZM90.4611 89.5278C90.3325 89.5278 90.3325 89.5278 90.2039 89.5278C88.5322 89.5278 86.8606 89.2722 85.1889 89.0166C82.4885 88.3775 79.9168 87.355 77.6022 85.9491C76.4448 85.1822 75.2875 84.2876 74.1302 83.3929C69.2438 78.9195 66.0291 72.529 66.0291 65.4994C66.0291 52.8461 75.8019 42.4935 88.1465 41.471C88.918 41.3432 89.561 41.3432 90.3325 41.3432C91.104 41.3432 91.747 41.3432 92.3899 41.471C94.5759 41.5988 96.6334 42.11 98.5622 42.7491C100.105 43.2603 101.52 43.8994 102.806 44.7941C109.878 49.0118 114.636 56.6805 114.636 65.4994C114.764 78.6639 103.963 89.5278 90.4611 89.5278Z" fill="#C52C29"/>
<path d="M105.506 58.8532C104.349 60.1313 103.063 61.2816 101.905 62.5597C99.9766 64.4769 98.0478 66.3941 96.1189 68.3112C93.5472 70.8674 90.9754 73.4237 88.4036 75.9799C87.3749 77.0024 86.3462 77.258 85.1889 76.8745C84.6745 76.7467 84.2887 76.3633 83.7744 75.8521C83.1314 75.213 82.4885 74.7018 81.9741 74.0627C79.9167 72.0177 77.8593 69.9728 75.8018 67.9278C74.3874 66.5219 74.2588 64.8603 75.5447 63.5822C76.8306 62.3041 78.5022 62.4319 79.9167 63.8379C81.4598 65.3716 83.1314 67.0331 84.8031 68.6947C85.3175 69.2059 85.8318 69.7171 86.2176 70.1006C87.6321 68.6947 88.918 67.2887 90.2038 66.0106C90.3324 65.8828 90.461 65.755 90.5896 65.6272C93.1614 63.071 95.7332 60.5148 98.4336 57.8308C99.4623 56.8083 100.491 55.7858 101.52 54.7633C102.034 54.2521 102.548 53.9964 103.191 53.8686C104.091 53.613 105.12 53.8686 105.892 54.6355C106.792 55.7858 106.792 57.4473 105.506 58.8532Z" fill="#C52C29"/>
</svg>
