<svg width="102" height="102" viewBox="0 0 102 102" fill="none" xmlns="http://www.w3.org/2000/svg">
<path d="M97.2124 88.0177H4.78764C2.16027 88.0177 0 85.8613 0 83.2386V18.7791C0 16.1564 2.16027 14 4.78764 14H97.2124C99.8397 14 102 16.1564 102 18.7791V83.2969C102 85.8613 99.8397 88.0177 97.2124 88.0177ZM4.78764 16.9141C3.73669 16.9141 2.91929 17.73 2.91929 18.7791V83.2969C2.91929 84.2877 3.73669 85.1619 4.78764 85.1619H97.2124C98.2049 85.1619 99.0807 84.346 99.0807 83.2969V18.7791C99.0807 17.7883 98.2633 16.9141 97.2124 16.9141H4.78764V16.9141Z" fill="black"/>
<path d="M100.54 26.822H1.45976V29.736H100.54V26.822Z" fill="black"/>
<path d="M81.6819 24.0245C82.6493 24.0245 83.4335 23.2416 83.4335 22.276C83.4335 21.3104 82.6493 20.5276 81.6819 20.5276C80.7146 20.5276 79.9304 21.3104 79.9304 22.276C79.9304 23.2416 80.7146 24.0245 81.6819 24.0245Z" fill="#DB0000"/>
<path d="M88.0459 24.0245C89.0133 24.0245 89.7975 23.2416 89.7975 22.276C89.7975 21.3104 89.0133 20.5276 88.0459 20.5276C87.0785 20.5276 86.2943 21.3104 86.2943 22.276C86.2943 23.2416 87.0785 24.0245 88.0459 24.0245Z" fill="#DB0000"/>
<path d="M94.3513 24.0245C95.3186 24.0245 96.1028 23.2416 96.1028 22.276C96.1028 21.3104 95.3186 20.5276 94.3513 20.5276C93.3839 20.5276 92.5997 21.3104 92.5997 22.276C92.5997 23.2416 93.3839 24.0245 94.3513 24.0245Z" fill="#DB0000"/>
<path d="M68.7202 45.1224C68.545 44.9476 68.3115 44.831 68.1363 44.7145H68.078C68.0196 44.7145 67.9612 44.7145 67.9612 44.7145H67.8444C67.8444 44.7145 64.9835 44.7145 64.8667 44.7145L37.0167 44.8893C36.0241 42.7912 33.1049 42.558 32.9297 42.4998H26.2153V43.782H32.8713C32.8713 43.782 35.4403 44.0151 35.9658 45.7052C36.3745 47.0457 38.7099 54.5641 40.4615 60.3922L40.695 61.2082C41.2789 63.1315 41.8043 64.7633 42.1547 65.929C41.8043 66.4535 41.5708 67.0946 41.5708 67.794C41.5708 69.659 43.0888 71.1743 44.9572 71.1743C46.8255 71.1743 48.2852 69.7173 48.3436 67.8523H55.7585C55.7585 68.1437 55.8169 68.4351 55.8753 68.7265C56.4008 70.5332 58.3275 71.524 60.0791 70.9995C61.8891 70.4749 62.8816 68.6099 62.3561 66.8032C61.8307 64.9965 59.9623 64.0057 58.1524 64.5302C57.1014 64.8216 56.3424 65.6376 55.9337 66.5701H48.1684C47.7013 65.2879 46.4752 64.4137 45.0156 64.4137C44.3733 64.4137 43.7311 64.5885 43.264 64.9382C42.9721 63.9474 42.5634 62.6652 42.0963 61.2082H60.9549C64.2829 61.2082 64.9251 59.6928 65.0419 59.2266C65.3338 58.4689 68.3115 50.9506 69.1289 47.8034C69.4208 46.6378 69.3041 45.7052 68.7202 45.1224ZM63.7574 58.8769L63.699 58.9935C63.699 58.9935 63.4071 59.9843 60.8965 59.9843H41.6292L40.4031 55.9045H64.9251C64.2829 57.5364 63.7574 58.8186 63.7574 58.8769ZM67.8444 47.512C67.4357 49.1439 66.3264 52.0579 65.3922 54.5641H39.9944L37.4254 46.1715L63.0568 45.9384H67.4941C67.4941 45.9384 67.7276 45.9384 67.8444 46.1132C68.0196 46.3463 68.0196 46.8709 67.8444 47.512Z" fill="#DB0000"/>
<path d="M63.6405 51.242H53.3646C52.6639 51.242 52.1385 50.6591 52.1385 50.018C52.1385 49.3187 52.7223 48.7941 53.3646 48.7941H63.6405C64.3411 48.7941 64.8666 49.3769 64.8666 50.018C64.925 50.7174 64.3411 51.242 63.6405 51.242Z" fill="#DB0000"/>
</svg>
