<svg width="104" height="104" viewBox="0 0 104 104" fill="none" xmlns="http://www.w3.org/2000/svg">
<circle cx="52" cy="52" r="52" fill="#F1F1F2"/>
<path d="M40.1798 77C34.5562 77 31.5899 71.7111 31.5899 71.6482L32.6404 71.0185C32.764 71.2704 35.7303 76.6222 41.6011 75.5519C43.9494 75.1111 45.4944 73.6 46.1123 71.0185C46.6067 69.0037 46.3595 67.1148 46.3595 67.1148L47.5955 66.9259C48.0281 69.8852 47.2865 75.8037 41.8483 76.7482C41.2303 77 40.6741 77 40.1798 77Z" fill="#D16427"/>
<path d="M39.0674 34.5L23 72.9074L63.7865 67.2407L39.0674 34.5Z" fill="#FDA829"/>
<path d="M64.2191 67.0519C62.2416 68.563 55.073 62.4556 48.2135 53.3889C47.2247 52.0667 46.2977 50.8074 45.4326 49.5482C44.0112 47.4074 42.7753 45.3926 41.7865 43.5037C39.191 38.7185 38.1404 35.0667 39.3146 34.1222C41.2921 32.6111 48.4607 38.7185 55.3202 47.7852C62.1798 56.9148 66.1966 65.4778 64.2191 67.0519Z" fill="#E3452A"/>
<path d="M45.4326 49.5482C44.0112 47.4074 42.7753 45.3926 41.7865 43.5037C42.0955 43.3148 42.4663 43.1889 42.8989 43.1259C44.8146 42.8111 46.6068 44.1333 46.8539 46.0852C47.0393 47.4704 46.4832 48.7926 45.4326 49.5482Z" fill="white"/>
<path d="M45.8034 38.9074L52.4157 36.3889L50.8708 44.1333L45.8034 38.9074Z" fill="#F9E650"/>
<path d="M57.9157 38.0889L57.2977 42.3074L61.3146 43.1259L62.0562 39.0333L57.9157 38.0889Z" fill="#F1496C"/>
<path d="M59.5843 49.6111L56.8034 54.6481L60.2023 57.7963L64.7135 56.0333V50.3667L59.5843 49.6111Z" fill="#A9D129"/>
<path d="M45.618 33.4926L46.7303 36.137L49.0169 35.7592L49.6966 33.4296L47.4719 31.6667L45.618 33.4926Z" fill="#FAC35B"/>
<path d="M58.7809 30.5963L56.4326 33.9334H60.7584L58.7809 30.5963Z" fill="#BDBEC0"/>
<path d="M68.3368 36.5796L66.3401 34.8901L64.6818 36.9245L66.6785 38.614L68.3368 36.5796Z" fill="#30BBE3"/>
<path d="M68.3367 31.4795L66.34 29.79L64.6818 31.8244L66.6785 33.5139L68.3367 31.4795Z" fill="#BDBEC0"/>
<path d="M66.4438 45.3296C67.0582 45.3296 67.5562 44.8222 67.5562 44.1963C67.5562 43.5704 67.0582 43.063 66.4438 43.063C65.8295 43.063 65.3315 43.5704 65.3315 44.1963C65.3315 44.8222 65.8295 45.3296 66.4438 45.3296Z" fill="#415A72"/>
<path d="M67.9888 50.5556C68.842 50.5556 69.5337 49.8508 69.5337 48.9815C69.5337 48.1121 68.842 47.4074 67.9888 47.4074C67.1355 47.4074 66.4438 48.1121 66.4438 48.9815C66.4438 49.8508 67.1355 50.5556 67.9888 50.5556Z" fill="#E3452A"/>
<path d="M77.382 40.7963L73.5506 39.0333L71.6966 42.7481L75.3427 44.637L77.382 40.7963Z" fill="#FDB431"/>
<path d="M80.0393 38.5296L80.6573 34.2481L76.6404 33.4926L75.8989 37.5852L80.0393 38.5296Z" fill="#E3452A"/>
<path d="M53.7659 27.9475L55.2397 29.1945L56.4636 27.693L54.9899 26.446L53.7659 27.9475Z" fill="#E3452A"/>
<path d="M71.573 33.4926C72.1874 33.4926 72.6854 32.9852 72.6854 32.3593C72.6854 31.7333 72.1874 31.2259 71.573 31.2259C70.9587 31.2259 70.4607 31.7333 70.4607 32.3593C70.4607 32.9852 70.9587 33.4926 71.573 33.4926Z" fill="#FF9077"/>
<path d="M69.9663 29.1481C70.8196 29.1481 71.5112 28.4434 71.5112 27.5741C71.5112 26.7047 70.8196 26 69.9663 26C69.1131 26 68.4214 26.7047 68.4214 27.5741C68.4214 28.4434 69.1131 29.1481 69.9663 29.1481Z" fill="#E3452A"/>
</svg>
