<svg width="120" height="120" viewBox="0 0 120 120" fill="none" xmlns="http://www.w3.org/2000/svg">
<path d="M61.3143 112.731H85.867C85.867 112.731 92.3809 113.497 92.3809 107.373C92.3809 101.248 92.3809 18.4762 92.3809 18.4762H29.7465V106.224C29.7465 106.224 27.7422 112.779 35.7594 112.731C43.7766 112.683 61.3143 112.731 61.3143 112.731Z" fill="#D2D2D2"/>
<path d="M73.7143 55.619H76.7619C80.1143 55.619 82.8571 58.1905 82.8571 61.3333V64.1905C82.8571 67.3333 80.1143 69.9048 76.7619 69.9048H73.7143C70.3619 69.9048 67.619 67.3333 67.619 64.1905V61.3333C67.619 58.1905 70.3619 55.619 73.7143 55.619Z" fill="#DB3028"/>
<path d="M47.0476 55.619H50.0952C53.4476 55.619 56.1905 58.3619 56.1905 61.7143V64.7619C56.1905 68.1143 53.4476 70.8571 50.0952 70.8571H47.0476C43.6952 70.8571 40.9524 68.1143 40.9524 64.7619V61.7143C40.9524 58.3619 43.6952 55.619 47.0476 55.619Z" fill="#DB3028"/>
<path d="M73.7143 28.9524H76.7619C80.1143 28.9524 82.8571 31.6952 82.8571 35.0476V38.0952C82.8571 41.4476 80.1143 44.1905 76.7619 44.1905H73.7143C70.3619 44.1905 67.619 41.4476 67.619 38.0952V35.0476C67.619 31.6952 70.3619 28.9524 73.7143 28.9524Z" fill="#DB3028"/>
<path d="M47.0476 28.9524H50.0952C53.4476 28.9524 56.1905 31.6952 56.1905 35.0476V38.0952C56.1905 41.4476 53.4476 44.1905 50.0952 44.1905H47.0476C43.6952 44.1905 40.9524 41.4476 40.9524 38.0952V35.0476C40.9524 31.6952 43.6952 28.9524 47.0476 28.9524Z" fill="#DB3028"/>
<path d="M97.1771 18.4762H25.6337C24.1066 18.4762 22.8571 17.1544 22.8571 15.5389V10.9372C22.8571 9.32176 24.1066 8 25.6337 8H97.2234C98.7505 8 100 9.32176 100 10.9372V15.5389C99.9537 17.1544 98.7043 18.4762 97.1771 18.4762Z" fill="#B94F04"/>
<path d="M60.9524 86.0952H44.7619V112.762H60.9524V86.0952Z" fill="#749CFF"/>
<path fill-rule="evenodd" clip-rule="evenodd" d="M43.7619 85.0952H61.9524V113.762H43.7619V85.0952ZM45.7619 87.0952V111.762H59.9524V87.0952H45.7619Z" fill="black"/>
<path d="M78.0952 86.0952H60.9524V112.762H78.0952V86.0952Z" fill="#749CFF"/>
<path fill-rule="evenodd" clip-rule="evenodd" d="M59.9524 85.0952H79.0952V113.762H59.9524V85.0952ZM61.9524 87.0952V111.762H77.0952V87.0952H61.9524Z" fill="black"/>
<path fill-rule="evenodd" clip-rule="evenodd" d="M120 115.262H0V110.262H120V115.262Z" fill="black"/>
<path fill-rule="evenodd" clip-rule="evenodd" d="M9.42857 111.81V81.3333H13.4286V111.81H9.42857Z" fill="black"/>
<path fill-rule="evenodd" clip-rule="evenodd" d="M99.0735 111.819L98.5987 90.2825L102.598 90.1943L103.072 111.73L99.0735 111.819Z" fill="black"/>
<path d="M10.9524 81.3333C17.0012 81.3333 21.9048 76.4298 21.9048 70.381C21.9048 64.3321 17.0012 59.4286 10.9524 59.4286C4.90355 59.4286 0 64.3321 0 70.381C0 76.4298 4.90355 81.3333 10.9524 81.3333Z" fill="#4BC172"/>
<path d="M100 92.7619C106.312 92.7619 111.429 87.8584 111.429 81.8095C111.429 75.7607 106.312 70.8571 100 70.8571C93.6882 70.8571 88.5714 75.7607 88.5714 81.8095C88.5714 87.8584 93.6882 92.7619 100 92.7619Z" fill="#4BC172"/>
</svg>
