<svg width="70" height="70" viewBox="0 0 70 70" fill="none" xmlns="http://www.w3.org/2000/svg">
<path d="M44.9123 68.0667C41.642 68.0667 38.3051 68.0667 35.0348 68.0667C34.1672 67.3333 33.2329 66.6 32.432 65.8C31.6978 65 30.897 64.8 29.8291 64.8C23.2219 64.8667 16.548 64.8 9.94074 64.8C7.67159 64.8 7.33789 64.4667 7.33789 62.1333C7.33789 52.3333 7.33789 42.6 7.33789 32.8C7.33789 24.4667 7.33789 16.0667 7.33789 7.73332C7.33789 5.93332 7.80507 5.46665 9.60704 5.46665C11.6092 5.46665 13.6782 5.46665 15.6803 5.46665C17.7493 5.46665 18.5501 6.13332 18.8838 8.19998C19.351 11.1333 20.2854 12 23.2219 12C28.8948 12.0667 34.6344 12.0667 40.3073 12C43.3773 12 44.7121 10.8 45.3127 7.79998C45.6464 6.26665 46.514 5.53332 48.1825 5.53332C50.1847 5.53332 52.2536 5.53332 54.2558 5.53332C56.4582 5.53332 56.8587 5.93332 56.8587 8.19998C56.8587 15.4 56.8587 22.6 56.8587 29.8C56.8587 30.2667 56.9922 31 57.3259 31.2667C58.06 31.9333 58.9943 32.3333 60.0622 33C60.0622 32.3333 60.0622 31.8667 60.0622 31.4C60.0622 23.1333 60.0622 14.8667 60.0622 6.59998C60.0622 3.33332 59.1278 2.39998 55.7241 2.33332C52.7208 2.19998 49.851 2.13332 46.9145 2.06665C52.921 2.06665 58.9943 2.06665 65.0009 2.06665C65.0009 17.4667 65.0009 32.9333 65.0009 48.3333C64.9342 48 64.8007 47.7333 64.734 47.4C63.5326 37.6667 54.0556 30.5333 44.3116 32C36.0359 33.2667 29.362 40.2 28.828 48.1333C28.2274 57.3333 33.4331 64.9333 41.9757 67.4C42.9101 67.6667 43.9779 67.8667 44.9123 68.0667ZM17.2821 28.4667C27.1596 28.4667 36.9035 28.4667 46.7143 28.4667C46.7143 27.4 46.7143 26.4 46.7143 25.3333C36.8368 25.3333 27.0261 25.3333 17.2821 25.3333C17.2821 26.4 17.2821 27.3333 17.2821 28.4667ZM29.6957 36.8667C25.4911 36.8667 21.4199 36.8667 17.3488 36.8667C17.3488 37.9333 17.3488 38.9333 17.3488 39.9333C17.5491 40 17.6158 40.0667 17.6825 40.0667C19.8182 40.0667 22.0206 39.8667 24.1563 40.1333C26.8259 40.4667 28.6278 39.6667 29.6289 37.1333C29.6957 37.0667 29.6957 37.0667 29.6957 36.8667ZM25.3576 51.4667C25.3576 50.4 25.3576 49.4 25.3576 48.4C22.6213 48.4 19.9517 48.4 17.3488 48.4C17.3488 49.4667 17.3488 50.4667 17.3488 51.4667C20.0852 51.4667 22.688 51.4667 25.3576 51.4667Z" fill="white"/>
<path d="M44.9108 68.0666C43.9097 67.8666 42.9086 67.6666 41.9075 67.3333C33.3649 64.9333 28.1592 57.2666 28.7598 48.0666C29.3605 40.2 36.0345 33.2666 44.3102 32C54.0541 30.5333 63.5312 37.6666 64.7325 47.4C64.7992 47.7333 64.866 48 64.9994 48.3333C64.9994 49.4 64.9994 50.4 64.9994 51.4666C64.9327 51.8 64.7992 52.0666 64.7325 52.4C63.9983 57.7333 61.3288 61.9333 56.924 65C54.3878 66.7333 51.518 67.5333 48.5815 68.0666C47.3802 68.0666 46.1789 68.0666 44.9108 68.0666ZM56.7237 48.2666C53.9207 48.2666 51.3178 48.2666 48.5815 48.2666C48.5815 45.5333 48.5815 42.8666 48.5815 40.1333C47.4469 40.1333 46.4458 40.1333 45.3113 40.1333C45.3113 44 45.3113 47.7333 45.3113 51.5333C49.1822 51.5333 52.9196 51.5333 56.7237 51.5333C56.7237 50.4 56.7237 49.4666 56.7237 48.2666Z" fill="#DB3028"/>
<path d="M46.9136 2.06665C49.8501 2.13332 52.7199 2.19998 55.6565 2.19998C58.9934 2.19998 59.9945 3.13332 59.9945 6.46665C59.9945 14.7333 59.9945 23 59.9945 31.2667C59.9945 31.7333 59.9945 32.2 59.9945 32.8667C58.9934 32.2667 58.0591 31.8 57.2582 31.1333C56.9245 30.8667 56.791 30.2 56.791 29.6667C56.791 22.4667 56.791 15.2667 56.791 8.06665C56.791 5.86665 56.3906 5.39998 54.1882 5.39998C52.186 5.39998 50.1171 5.39998 48.1149 5.39998C46.5131 5.39998 45.5788 6.13332 45.2451 7.66665C44.6444 10.6667 43.3096 11.8667 40.2396 11.8667C34.5667 11.9333 28.8271 11.9333 23.1543 11.8667C20.2177 11.8667 19.2834 11 18.8162 8.06665C18.4825 6.06665 17.6816 5.33332 15.6127 5.33332C13.6105 5.33332 11.5416 5.33332 9.53939 5.33332C7.80416 5.46665 7.33698 5.93332 7.33698 7.73332C7.33698 16.0667 7.33698 24.4667 7.33698 32.8C7.33698 42.6 7.33698 52.3333 7.33698 62.1333C7.33698 64.4 7.67068 64.8 9.93982 64.8C16.547 64.8 23.221 64.8 29.8282 64.8C30.8961 64.8 31.6969 65 32.4311 65.8C33.2319 66.6667 34.1663 67.3333 35.0339 68.0667C25.5569 68.0667 16.0131 68.0667 6.53611 68.0667C5.66849 67.2 4.86761 66.4 4 65.5333C4 45.3333 4 25.1333 4 4.86665C4.6674 2.79998 6.13567 2.13332 8.2046 2.19998C11.2079 2.26665 14.2779 2.13332 17.2812 2.06665C17.8151 2.06665 18.4158 2.06665 18.9497 2.06665C20.5514 2.59998 22.0197 3.19998 22.0864 5.26665C22.1532 7.59998 23.4212 8.79998 25.7571 8.79998C30.0952 8.86665 34.3665 8.79998 38.7046 8.79998C40.5733 8.79998 41.7746 7.73332 41.8414 5.93332C41.9081 3.93332 42.709 2.66665 44.6444 2.13332C45.4453 2.06665 46.1794 2.06665 46.9136 2.06665Z" fill="black"/>
<path d="M44.644 2.06667C42.7085 2.6 41.9076 3.93333 41.8409 5.86667C41.7742 7.66667 40.5728 8.73333 38.7041 8.73333C34.3661 8.73333 30.0947 8.8 25.7567 8.73333C23.4208 8.73333 22.2195 7.53333 22.086 5.2C22.0192 3.13333 20.551 2.53333 18.9492 2C21.6855 2 24.4219 2 27.1582 2C27.1582 3.06667 27.1582 4.2 27.1582 5.26667C30.4952 5.26667 33.6987 5.26667 37.0357 5.26667C36.9022 4.06667 36.8354 3.06667 36.7687 2C39.3715 2.06667 42.0411 2.06667 44.644 2.06667Z" fill="white"/>
<path d="M48.582 68.0667C51.5186 67.5333 54.3884 66.7333 56.9245 65C61.3293 61.9333 63.9989 57.7333 64.733 52.4C64.7998 52.0667 64.8665 51.8 65 51.4667C65 57 65 62.5333 65 68.1333C59.5273 68.0667 54.0547 68.0667 48.582 68.0667Z" fill="white"/>
<path d="M36.7687 2.06665C36.8354 3.13332 36.9689 4.13332 37.0357 5.33332C33.6987 5.33332 30.4952 5.33332 27.1582 5.33332C27.1582 4.26665 27.1582 3.13332 27.1582 2.06665C30.3617 2.06665 33.5652 2.06665 36.7687 2.06665Z" fill="black"/>
<path d="M17.2812 2.06665C14.2779 2.13332 11.2079 2.26665 8.2046 2.19998C6.13567 2.13332 4.6674 2.86665 4 4.86665C4 3.93332 4 2.99998 4 2.06665C8.40481 2.06665 12.8764 2.06665 17.2812 2.06665Z" fill="white"/>
<path d="M4 65.5333C4.86761 66.4 5.66849 67.2 6.53611 68.0667C5.66849 68.0667 4.86761 68.0667 4 68.0667C4 67.2 4 66.4 4 65.5333Z" fill="white"/>
<path d="M17.2812 28.4666C17.2812 27.3999 17.2812 26.3999 17.2812 25.3333C27.092 25.3333 36.9027 25.3333 46.7134 25.3333C46.7134 26.3999 46.7134 27.3999 46.7134 28.4666C36.9694 28.4666 27.2255 28.4666 17.2812 28.4666Z" fill="black"/>
<path d="M29.6945 36.8667C29.6277 37.0667 29.6277 37.1334 29.6277 37.1334C28.6266 39.6 26.8247 40.4 24.1551 40.1334C22.0194 39.8667 19.8838 40.0667 17.6814 40.0667C17.6146 40.0667 17.4811 40 17.3477 39.9334C17.3477 38.9334 17.3477 38 17.3477 36.8667C21.4188 36.8667 25.5566 36.8667 29.6945 36.8667Z" fill="black"/>
<path d="M25.3564 51.4667C22.6868 51.4667 20.084 51.4667 17.3477 51.4667C17.3477 50.4667 17.3477 49.4667 17.3477 48.4C19.9505 48.4 22.6201 48.4 25.3564 48.4C25.3564 49.4 25.3564 50.4 25.3564 51.4667Z" fill="black"/>
<path d="M56.725 48.2666C56.725 49.4666 56.725 50.4 56.725 51.5333C52.9208 51.5333 49.1834 51.5333 45.3125 51.5333C45.3125 47.7333 45.3125 44 45.3125 40.1333C46.3803 40.1333 47.3814 40.1333 48.5827 40.1333C48.5827 42.8666 48.5827 45.5333 48.5827 48.2666C51.3191 48.2666 53.9219 48.2666 56.725 48.2666Z" fill="white"/>
</svg>
