<svg width="104" height="104" viewBox="0 0 104 104" fill="none" xmlns="http://www.w3.org/2000/svg">
<circle cx="52" cy="52" r="52" fill="#F1F1F2"/>
<path d="M86 52.3618C86 63.2323 81.012 72.8131 73.1606 79.1696C67.249 83.96 59.7671 86.7236 51.5462 86.7236C43.3253 86.7236 35.8434 83.8678 29.9317 79.1696C21.988 72.9052 17 63.2323 17 52.3618C17 33.3845 32.4257 18 51.4538 18C70.4819 18 86 33.3845 86 52.3618Z" fill="#FDE5E5"/>
<path d="M73.1606 79.3538C67.249 84.1442 59.7671 86.9079 51.5462 86.9079C43.3253 86.9079 35.8434 84.0521 29.9317 79.3538C32.3333 78.6168 34.8273 77.7877 37.2289 77.0507C39.3534 76.4059 40.9237 75.3004 41.1084 72.8131C41.2008 71.8919 41.755 71.3391 42.6787 71.0628C43.0482 70.9706 43.51 70.51 43.51 70.2337C43.4177 68.9439 43.4177 67.6542 42.9558 66.5487C41.6627 63.7851 40.1847 61.1135 38.7992 58.4419C37.8755 56.5995 37.506 54.5728 37.5984 52.5461C37.5984 51.9933 37.6908 51.2564 38.0602 51.0721C39.0763 50.3351 38.8916 49.4139 38.9839 48.4005C39.0763 47.5714 38.9839 46.7423 38.9839 46.0053C38.6145 40.478 41.5703 35.8718 46.4659 34.49C47.2048 34.3057 48.0362 34.1215 48.7751 33.9373H54.1325C54.2249 34.0294 54.4096 34.1215 54.502 34.1215C60.7831 35.0427 64.4779 39.741 64.0161 46.0053C63.9237 47.2951 64.1084 48.5848 64.1084 49.8745C64.1084 50.0588 64.2008 50.4272 64.3855 50.5194C65.494 51.0721 65.4016 52.1776 65.494 53.0988C65.5863 55.1255 65.0321 57.0601 64.0161 58.9025C62.6305 61.5741 61.1526 64.2457 59.9518 67.0094C59.49 68.0227 59.49 69.2203 59.49 70.3258C59.49 70.6021 59.9518 71.0628 60.2289 71.0628C61.3374 71.247 61.8916 71.984 61.9839 72.9973C62.1687 75.2083 63.5542 76.4059 65.494 76.9586C66.0482 77.1429 66.51 77.3271 67.0643 77.5114C69.004 78.1562 71.0361 78.709 73.1606 79.3538Z" fill="#D73B23"/>
</svg>
