<svg width="70" height="70" viewBox="0 0 70 70" fill="none" xmlns="http://www.w3.org/2000/svg">
<path d="M59.7552 0C60.9172 0.368968 62.1476 0.587616 63.2276 1.12057C66.741 2.81509 68.6412 5.80784 69.5572 9.47019C69.8306 10.5634 69.9263 11.7113 69.9947 12.8456C70.063 14.0345 69.4752 14.5947 68.2585 14.6084C65.8251 14.6221 63.378 14.6084 60.9446 14.6084C59.1264 14.6084 57.3081 14.6084 55.3942 14.6084C55.3942 14.9501 55.3942 15.237 55.3942 15.524C55.3942 28.8479 55.3259 42.1717 55.4352 55.4819C55.4762 60.7295 53.1249 64.4738 48.9963 67.3299C46.3851 69.1337 43.4596 69.9947 40.2606 69.981C30.8551 69.9537 21.4495 69.9263 12.044 69.9947C6.58934 70.0357 2.84353 66.8789 1.09367 62.5606C0.382783 60.8114 0 58.9939 0 57.1081C0 55.9329 0.505821 55.3999 1.69518 55.3726C2.51543 55.3589 3.33568 55.3589 4.15593 55.3589C7.34124 55.3589 10.5402 55.3589 13.7255 55.3589C13.9716 55.3589 14.2177 55.3589 14.5731 55.3589C14.5731 54.8806 14.5731 54.457 14.5731 54.0334C14.5731 39.8896 14.5594 25.7595 14.5731 11.6157C14.5731 10.1808 14.5048 8.73225 14.7098 7.33837C15.2703 3.59403 18.1549 0.792599 21.928 0.122989C22.01 0.109324 22.0784 0.0409965 22.1604 0C34.6966 0 47.2327 0 59.7552 0ZM17.4987 55.3726C17.8678 55.3726 18.1139 55.3726 18.3599 55.3726C21.3675 55.3726 24.3751 55.3589 27.3827 55.3726C28.5584 55.3726 29.0505 55.8919 29.1599 57.0534C29.2146 57.7094 29.3239 58.3653 29.529 58.9939C30.8961 63.2302 35.8586 66.9199 40.3836 67.0292C44.5669 67.1249 47.8206 65.1981 50.418 62.0823C51.6894 60.5655 52.4687 58.8026 52.4687 56.7801C52.4687 39.0833 52.4687 21.3865 52.4687 3.70335C52.4687 3.45737 52.4687 3.22506 52.4687 2.92442C52.1269 2.92442 51.8808 2.92442 51.6347 2.92442C49.2697 2.92442 46.891 2.91075 44.5259 2.92442C37.3487 2.93808 30.1715 2.93808 22.9943 3.00641C19.9731 3.00641 17.526 5.60285 17.526 8.65026C17.5123 22.9717 17.5123 37.2931 17.5123 51.6282C17.4987 52.8445 17.4987 54.0744 17.4987 55.3726ZM26.3574 58.379C18.565 58.379 10.8136 58.379 3.02125 58.379C3.07594 58.7206 3.11695 59.0213 3.17163 59.3082C4.04657 63.4079 6.78073 67.1112 12.126 67.0839C18.5923 67.0566 25.0586 67.0702 31.5249 67.0702C31.689 67.0702 31.8394 67.0429 32.0581 67.0156C28.2713 63.5719 27.1093 61.8227 26.3574 58.379ZM66.9871 11.602C65.8797 4.55061 61.2863 2.21381 55.4489 3.00641C55.4489 5.8625 55.4489 8.71859 55.4489 11.602C59.3177 11.602 63.1319 11.602 66.9871 11.602Z" fill="black"/>
<path d="M34.997 29.1349C31.1965 29.1349 27.396 29.1349 23.5955 29.1349C22.5155 29.1349 21.8866 28.6156 21.8866 27.7273C21.8866 26.8117 22.5428 26.2378 23.6228 26.2378C31.2238 26.2378 38.8248 26.2378 46.4394 26.2378C47.6835 26.2378 48.4491 27.208 48.0116 28.233C47.7245 28.9026 47.1913 29.1349 46.4805 29.1349C42.6389 29.1212 38.8248 29.1349 34.997 29.1349Z" fill="#DB3028"/>
<path d="M34.9429 20.3888C31.1697 20.3888 27.3829 20.3888 23.6097 20.3888C22.5161 20.3888 21.8599 19.8286 21.8735 18.913C21.8872 18.0384 22.5297 17.4918 23.5961 17.4918C31.1971 17.4918 38.798 17.4918 46.4127 17.4918C47.0826 17.4918 47.6294 17.6831 47.9575 18.298C48.2309 18.8036 48.1626 19.3093 47.8481 19.7739C47.5064 20.2795 47.0142 20.4025 46.4264 20.4025C42.5985 20.3888 38.7707 20.3888 34.9429 20.3888Z" fill="#DB3028"/>
<path d="M34.9827 37.8808C31.1412 37.8808 27.2861 37.8808 23.4446 37.8808C22.4192 37.8808 21.7767 37.1702 21.8998 36.2409C21.9955 35.4483 22.597 34.9837 23.5676 34.9837C26.8213 34.9837 30.0749 34.9837 33.3286 34.9837C37.7032 34.9837 42.0642 34.9837 46.4389 34.9974C47.6693 34.9974 48.3938 35.913 48.011 36.9379C47.7786 37.5801 47.2865 37.8945 46.4526 37.8945C42.6247 37.8808 38.8106 37.8808 34.9827 37.8808Z" fill="#DB3028"/>
</svg>
