<svg width="70" height="70" viewBox="0 0 70 70" fill="none" xmlns="http://www.w3.org/2000/svg">
<path d="M65.8801 28.8423C65.9921 28.7299 66.1041 28.6175 66.2161 28.5051C66.6081 28.1116 66.832 27.8306 66.944 27.4934L65.8801 28.8423ZM65.6562 44.2434C65.6562 42.6695 64.9843 41.4892 63.6404 40.7585C63.2485 40.5336 63.1365 40.3088 63.1365 39.9153C63.1365 38.0043 63.1925 36.1494 63.1365 34.2383C63.1365 33.6762 63.0245 33.1142 62.8005 32.5521V32.4959C62.6325 32.1024 61.9606 30.6972 59.385 30.36C58.993 30.36 58.5451 30.3038 58.1531 30.3038C57.4812 30.3038 55.8014 30.3038 53.3937 30.3038C53.3377 30.3038 53.3377 30.3038 53.2817 30.3038C49.5302 30.3038 45.8346 30.3038 42.0831 30.3038C42.0271 30.3038 42.0271 30.3038 41.9711 30.3038C38.6115 30.3038 35.084 30.3038 31.6684 30.3038H22.4856C20.9178 30.3038 19.5179 30.3038 18.1741 30.3038C18.0061 30.36 17.7822 30.4162 17.5582 30.36C16.7183 30.3038 15.8784 30.36 15.0385 30.36L15.0945 30.3038C12.7988 30.3038 11.4549 30.3038 11.4549 30.3038L39.6194 1.86249C32.8443 8.60745 26.0691 15.4086 19.294 22.2098C19.014 22.4908 18.5101 22.7157 18.1181 22.7157C14.4226 22.7719 10.783 22.7157 7.08749 22.7157C4.5678 22.7157 3 24.2895 3 26.7627C3 39.1284 3 51.438 3 63.8038C3 66.5017 4.51181 68.0194 7.14348 68.0194C15.7664 68.0194 24.3893 68.0194 33.0122 68.0194C41.6912 68.0194 50.3701 68.0194 59.105 68.0194C61.6247 68.0194 63.1925 66.4455 63.1925 63.9162C63.1925 62.0613 63.1925 60.2064 63.1925 58.3516C63.1925 58.1267 63.3605 57.7333 63.5284 57.6209C64.9843 56.7778 65.6562 55.5974 65.6562 53.9111C65.6562 50.6511 65.6562 47.4472 65.6562 44.2434ZM60.6728 60.8809C60.6728 61.8927 60.6728 62.8482 60.6728 63.86C60.6728 65.0965 60.2248 65.49 59.049 65.49C50.1461 65.49 41.2992 65.49 32.3963 65.49C24.0534 65.49 15.7104 65.49 7.42345 65.49C5.85564 65.49 5.57568 65.1528 5.57568 63.5789C5.57568 51.3818 5.57568 39.1846 5.57568 26.9875C5.57568 25.5261 5.91164 25.1888 7.36745 25.1888C10.2791 25.1888 13.1907 25.1888 16.3823 25.1888C14.7025 26.8751 13.1347 28.4489 11.5669 29.9665C11.399 30.1351 11.119 30.1913 10.839 30.1913C9.94313 30.1913 9.04724 30.1913 8.09536 30.1913V32.7207H58.769C60.3928 32.7207 60.7288 33.058 60.7288 34.688C60.7288 36.5429 60.7288 38.3415 60.7288 40.2526H59.4409C55.3535 40.2526 51.266 40.2526 47.2345 40.2526C44.7708 40.2526 43.203 41.8264 43.203 44.2996C43.203 47.5596 43.203 50.8197 43.203 54.0236C43.203 56.2157 44.8268 57.8457 47.0105 57.8457C51.266 57.8457 55.5214 57.8457 59.7769 57.8457H60.7288V60.8809H60.6728ZM63.1925 53.9111C63.1925 54.9791 62.7445 55.4288 61.6807 55.4288C56.8653 55.4288 52.0499 55.4288 47.1785 55.4288C46.0586 55.4288 45.6107 54.9791 45.6107 53.8549C45.6107 50.7073 45.6107 47.5596 45.6107 44.412C45.6107 43.2878 46.0586 42.8382 47.1785 42.8382C49.5862 42.8382 51.9939 42.8382 54.4016 42.8382C56.8093 42.8382 59.217 42.8382 61.6247 42.8382C62.8005 42.8382 63.2485 43.2878 63.2485 44.4682C63.1925 47.6158 63.1925 50.7635 63.1925 53.9111ZM42.3071 1.86249C41.5792 1.13178 41.1312 0.85074 40.5713 1.07557C41.0192 1.01936 41.5792 1.13178 42.3071 1.86249Z" fill="black"/>
<path d="M53.3941 30.2476C53.5621 30.2476 53.73 30.1914 53.954 30.1914C52.8901 28.1679 52.8341 26.2569 53.954 24.1772C50.6504 20.8609 47.4028 17.6008 44.1552 14.397C43.9872 14.2845 43.5953 14.2845 43.3713 14.397C41.7475 15.0715 40.1237 15.1277 38.4999 14.3408C38.052 14.1159 37.828 14.2845 37.4921 14.5656C34.3565 17.7132 31.2768 20.8047 28.1412 23.9523C28.0292 24.0647 27.9173 24.2334 27.7493 24.4582C28.0292 24.4582 28.1972 24.402 28.3652 24.402C33.6845 23.7837 37.996 25.5824 41.2436 29.8542C41.4116 30.0228 41.7475 30.1914 42.0275 30.1914C38.6679 30.1914 35.1404 30.1914 31.7248 30.1914H38.164C33.9645 25.5262 26.2375 25.8634 22.5419 30.1914C20.9741 30.1914 19.5743 30.1914 18.2305 30.1914C18.5104 30.079 18.7344 29.9104 18.9584 29.6855C24.8376 23.7275 30.7729 17.8256 36.7082 11.8676C37.604 10.9683 37.996 10.9683 39.0039 11.7552C40.1797 12.6545 41.7475 12.6545 42.9234 11.7552C43.8193 11.0807 44.3232 11.0807 45.1071 11.8114C48.8586 15.5773 52.5542 19.2871 56.3057 23.053C57.1456 23.8961 57.1456 24.3458 56.4177 25.3013C55.4658 26.4817 55.4658 27.9431 56.3617 29.1235C56.6417 29.5169 56.8656 29.9104 57.0896 30.2476C57.4256 30.2476 57.8175 30.3038 58.1535 30.3038C57.4256 30.2476 55.7458 30.2476 53.3941 30.2476Z" fill="#DB3028"/>
<path d="M66.9448 27.4934L65.8809 28.8424C64.929 29.798 64.0331 30.6973 63.0813 31.6528C62.8013 31.9339 62.7453 32.1025 62.8013 32.496C62.6333 32.1025 61.9614 30.6973 59.3857 30.36C59.7217 30.36 60.1136 30.4163 60.4496 30.4163C60.5616 30.4163 60.7856 30.36 60.8415 30.3038C61.8494 29.2921 62.9133 28.2241 63.8652 27.2686C56.1941 19.5119 48.5791 11.8676 41.02 4.27951L15.1513 30.1914C12.8556 30.1914 11.5117 30.1914 11.5117 30.1914L39.6202 1.86256C40.0122 1.4691 40.2921 1.24427 40.5721 1.13186C41.02 1.01944 41.58 1.18806 42.3079 1.91877C42.3639 1.97498 42.4198 2.03119 42.4758 2.08739C50.3709 10.0127 58.3219 17.9381 66.2169 25.8634C66.8888 26.5379 67.1688 26.9876 66.9448 27.4934Z" fill="black"/>
</svg>
