<svg width="102" height="102" viewBox="0 0 102 102" fill="none" xmlns="http://www.w3.org/2000/svg">
<path d="M0 13.2884C0.0796876 13.0691 0.219141 12.8697 0.239063 12.6504C1.05586 7.26749 4.62188 4.05768 10.0805 4.03775C23.6274 3.97794 37.1743 3.99787 50.7212 4.03775C55.4227 4.05768 59.0485 6.9485 60.1442 11.4143C60.3633 12.2716 60.443 13.1887 60.463 14.0659C60.4829 25.37 60.4829 36.6541 60.4829 47.9582C60.4829 52.9224 57.5743 56.7303 53.0321 57.7272C52.036 57.9465 51.0001 58.0262 49.984 58.0462C44.5055 58.0661 39.027 58.0661 33.5485 58.0462C32.8114 58.0462 32.3133 58.2655 31.8153 58.7639C26.9543 63.7281 22.0735 68.6525 17.1926 73.5967C16.8539 73.9556 16.4754 74.3145 16.0371 74.5138C14.4235 75.2714 12.8297 73.9755 12.9692 72.1214C13.2879 67.8351 13.5668 63.5287 13.8656 59.2224C13.8856 58.9034 13.8656 58.5645 13.8656 58.0462C12.75 58.0462 11.6543 58.1458 10.5984 58.0262C8.96485 57.8269 7.25157 57.7072 5.77735 57.0892C2.56992 55.7534 0.757032 53.1816 0.298828 49.7126C0.258985 49.4535 0.119531 49.2341 0.0398438 48.975C0 37.0728 0 25.1905 0 13.2884ZM35.7797 39.3854C38.1704 38.1095 39.7243 36.2554 40.4614 33.8032C41.4176 30.6532 41.4774 27.4434 40.6606 24.2735C39.6645 20.3459 37.1942 17.814 33.1301 17.1361C31.4965 16.857 29.7633 16.877 28.1098 16.9966C24.1653 17.3156 21.1571 19.9472 20.0016 23.7551C19.384 25.7687 19.3641 27.8022 19.4438 29.8557C19.643 35.8567 23.1094 40.2028 29.6637 40.3025C30.1418 40.3025 30.7196 40.6414 31.0582 41.0202C31.875 41.9174 32.6918 42.8744 33.3094 43.931C34.0664 45.2069 35.0625 45.6256 36.5168 45.506C37.9114 45.3864 39.3258 45.4861 40.7403 45.4861C40.7801 45.3864 40.82 45.3066 40.8598 45.2069C39.1864 43.313 37.5329 41.399 35.7797 39.3854Z" fill="#C42927"/>
<path d="M102 73.4959C101.88 73.9744 101.741 74.4529 101.621 74.9314C100.486 79.1181 96.8004 81.989 92.4773 82.0288C91.0828 82.0488 89.7082 82.0288 88.1941 82.0288C88.2738 83.4842 88.3535 84.8399 88.4531 86.1756C88.6922 89.3456 88.9312 92.5354 89.1703 95.7054C89.2898 97.1209 88.8516 98.0778 87.8156 98.5364C86.7996 98.9949 85.9031 98.7557 84.8871 97.719C80.0262 92.7946 75.1652 87.8902 70.3441 82.9459C69.6668 82.2481 68.9695 81.989 67.9933 81.989C62.475 82.0288 56.9765 82.0089 51.4582 82.0089C45.5414 82.0089 41.4574 77.9019 41.4574 71.9608C41.4574 68.7311 41.4574 65.5213 41.4574 62.2118C43.0113 62.2118 44.5054 62.2118 46.1589 62.2118C46.1589 62.5507 46.1589 62.9096 46.1589 63.2485C46.1589 66.2789 46.1589 69.2893 46.1589 72.3197C46.1789 75.2105 48.2109 77.264 51.1195 77.2839C57.3551 77.3038 63.6105 77.3038 69.8461 77.2839C70.882 77.2839 71.6988 77.6029 72.416 78.3405C75.9422 81.9491 79.4883 85.5377 83.0144 89.1661C83.2934 89.4453 83.4527 89.8241 83.6519 90.163C83.7715 90.0832 83.8711 90.0035 83.9906 89.9038C83.9906 89.525 84.0105 89.1462 83.9906 88.7674C83.7715 85.8168 83.5125 82.8861 83.3133 79.9355C83.2137 78.3405 84.2297 77.3038 85.8633 77.3038C87.9949 77.2839 90.1066 77.3038 92.2383 77.3038C95.1668 77.2839 97.2387 75.2304 97.2387 72.2798C97.2387 60.7165 97.2387 49.1533 97.2387 37.59C97.2387 34.6394 95.1668 32.5859 92.2383 32.566C83.4328 32.566 74.6472 32.566 65.8418 32.566C65.4433 32.566 65.0648 32.566 64.6265 32.566C64.6265 30.9711 64.6265 29.4957 64.6265 27.8609C65.0051 27.8609 65.3836 27.8609 65.782 27.8609C74.5476 27.8609 83.3133 27.8609 92.0789 27.8609C97.0793 27.8609 100.825 30.9511 101.801 35.8356C101.841 36.035 101.94 36.2144 102 36.3938C102 48.7745 102 61.1352 102 73.4959Z" fill="#3B3B3B"/>
<path d="M61.7579 66.0795C63.2719 61.7333 64.7462 57.5068 66.2403 53.3001C67.2962 50.2897 68.3719 47.2992 69.388 44.2888C69.627 43.591 69.9657 43.3916 70.663 43.4116C72.0575 43.4714 73.452 43.3916 74.8466 43.4514C75.1454 43.4714 75.5837 43.7505 75.6833 44.0296C78.2731 51.2666 80.8032 58.5235 83.3532 65.7605C83.3731 65.8204 83.3731 65.8802 83.3731 66.0795C81.8591 66.0795 80.345 66.0995 78.8509 66.0596C78.6317 66.0596 78.3329 65.7007 78.2532 65.4615C77.8348 64.2055 77.4563 62.9295 77.0977 61.6536C76.9384 61.0754 76.6594 60.8761 76.0618 60.896C73.7708 60.9359 71.4798 60.9359 69.1887 60.896C68.5911 60.896 68.2923 61.0754 68.1329 61.6536C67.7942 62.9096 67.3958 64.1257 67.0372 65.3817C66.8977 65.9001 66.6786 66.1393 66.0809 66.1194C64.7063 66.0397 63.3118 66.0795 61.7579 66.0795ZM72.6153 46.9005C71.5993 50.2698 70.663 53.3599 69.7266 56.5099C71.7188 56.5099 73.5915 56.5099 75.5837 56.5099C74.5876 53.3201 73.6313 50.2299 72.6153 46.9005Z" fill="#E28A00"/>
<path d="M24.5238 28.5787C24.8624 27.1034 25.0617 25.5084 25.6195 24.0531C26.4363 21.88 28.3687 21.1423 30.5203 21.1822C32.632 21.2221 34.3652 22.1591 35.1222 24.2325C36.198 27.2031 36.2179 30.2334 35.0824 33.1841C34.2257 35.417 32.373 36.2144 30.0621 36.1347C27.8906 36.0549 26.2371 35.1578 25.4999 33.0844C25.0019 31.6888 24.8425 30.1936 24.5238 28.5787Z" fill="#C42927"/>
</svg>
