<svg width="102" height="102" viewBox="0 0 102 102" fill="none" xmlns="http://www.w3.org/2000/svg">
<path d="M57.7354 49.6813C56.3201 48.3754 54.8262 47.208 53.5877 45.8031C44.9386 35.9887 45.8821 21.0891 55.7894 12.3631C62.7677 6.22908 70.8075 4.34931 79.5746 7.51523C88.3613 10.7009 93.7474 17.1911 95.4379 26.4514C97.7182 38.9172 88.7741 51.6798 76.3311 53.9949C74.4834 54.3313 72.5963 54.4698 70.7092 54.5094C52.9194 55.0634 37.5868 68.3603 34.5596 86.0301C34.1861 88.1671 34.1271 90.3634 33.9699 92.54C33.7929 95.1123 31.7093 96.5765 29.2718 95.7851C27.8565 95.33 27.0505 94.123 27.0702 92.4015C27.1488 84.4273 29.0752 76.9281 33.1246 70.062C38.7072 60.5642 46.747 53.9553 56.9688 50.0375C57.1654 49.9584 57.3816 49.8792 57.5782 49.8001C57.6175 49.7605 57.6764 49.7209 57.7354 49.6813ZM71.692 47.5443C81.3241 47.5443 88.8921 39.9659 88.8921 30.2901C88.8921 20.6142 81.3437 12.9764 71.7313 12.9764C62.119 12.9764 54.5313 20.5747 54.5313 30.2505C54.551 39.9461 62.06 47.5443 71.692 47.5443Z" fill="#C42927"/>
<path d="M30.8844 44.3428C21.9425 38.1059 20.9555 26.5842 26.3167 18.8512C31.9295 10.7684 41.8197 8.72833 49.097 12.2062C47.7809 13.5274 46.4648 14.8487 45.0906 16.1504C44.9358 16.3059 44.51 16.2476 44.2196 16.2087C36.9036 14.8292 30.0908 19.3952 28.6005 26.6813C27.1296 33.9091 31.6779 40.9038 38.9165 42.4582C39.8262 42.6525 40.7552 42.633 41.6842 42.7496C41.9358 42.7885 42.2648 42.8468 42.381 43.0216C43.4261 44.5566 44.4325 46.1109 45.5164 47.7819C44.2777 47.8985 43.0584 48.1122 41.8584 48.1122C27.9038 48.0539 15.9039 58.1767 13.0588 71.35C12.6137 73.3707 12.5362 75.4691 12.362 77.5286C12.2266 79.083 11.5104 80.0545 10.1943 80.2488C8.27823 80.5402 6.96212 79.4328 7.00083 77.4898C7.13631 67.7944 10.6782 59.5368 17.5491 52.717C21.149 49.1614 25.349 46.519 30.0715 44.7314C30.3037 44.6343 30.536 44.5566 30.7489 44.44C30.8069 44.44 30.8456 44.3817 30.8844 44.3428Z" fill="#3B3B3B"/>
<path d="M72.2634 79.0946C71.8027 79.0946 71.4764 79.0946 71.1309 79.0946C67.0423 79.0946 62.9537 79.1139 58.8843 79.0946C56.6193 79.0754 55.314 77.5742 55.5251 75.3224C55.6979 73.5325 56.9264 72.4162 58.8075 72.397C62.9153 72.3777 67.0423 72.397 71.1501 72.397C71.4764 72.397 71.8219 72.397 72.2634 72.397C72.2634 71.9543 72.2634 71.5886 72.2634 71.223C72.2634 67.162 72.2442 63.1011 72.2826 59.0209C72.3018 56.5381 74.1829 55.0754 76.5247 55.6528C78.0604 56.0377 78.9625 57.231 78.9817 59.0016C79.0009 63.1011 78.9817 67.2005 78.9817 71.2807C78.9817 71.6079 78.9817 71.9351 78.9817 72.3777C79.404 72.3777 79.7303 72.3777 80.0567 72.3777C84.1453 72.3777 88.2338 72.3585 92.3032 72.3777C94.8562 72.397 96.3342 74.4756 95.5664 76.9198C95.1249 78.3248 94.0116 79.0754 92.284 79.0754C88.2338 79.0946 84.1836 79.0754 80.1143 79.0754C79.7879 79.0754 79.4424 79.0754 79.0009 79.0754C78.9817 79.4411 78.9625 79.7683 78.9625 80.0954C78.9625 84.1949 78.9625 88.2943 78.9625 92.3745C78.9625 94.7225 77.5421 96.0313 75.2195 95.8773C73.6071 95.7618 72.4745 94.684 72.3018 93.0674C72.2634 92.6632 72.2634 92.259 72.2634 91.8741C72.2634 87.9864 72.2634 84.1179 72.2634 80.2302C72.2634 79.8837 72.2634 79.5373 72.2634 79.0946Z" fill="#3B3B3B"/>
</svg>
