<svg width="135" height="115" viewBox="0 0 135 115" fill="none" xmlns="http://www.w3.org/2000/svg">
<path d="M90.542 114.001C90.1893 113.545 89.5845 113.038 89.5845 112.582C89.5845 108.073 88.8285 103.563 91.4996 99.3075C97.9504 89.0727 104.3 78.7366 110.499 68.2992C111.658 66.3232 112.465 63.7899 112.515 61.4592C112.717 51.4271 112.616 41.395 112.616 31.3123C112.616 30.9576 112.616 30.6536 112.616 30.2989C112.465 27.9682 111.054 26.3976 109.139 26.3976C107.072 26.3469 105.611 27.9682 105.611 30.4509C105.56 38.1523 105.208 45.8537 105.712 53.5044C106.165 60.0912 104.3 65.0059 99.2607 69.2112C95.3802 72.4033 92.1043 76.3046 88.5262 79.8513C87.5182 80.8647 86.3591 82.638 84.8472 80.966C83.436 79.3953 85.0991 78.2806 86.1575 77.2166C90.8948 72.4539 95.6825 67.6912 100.369 62.8778C101.226 62.0165 101.982 60.5472 101.881 59.4325C101.831 58.4698 100.672 57.0511 99.7143 56.7471C98.656 56.3925 96.8921 56.6965 96.1361 57.4565C89.1813 64.2965 82.2265 71.1872 75.5237 78.23C73.0542 80.8647 71.9959 84.31 71.9959 88.0087C71.9959 95.6088 72.0463 103.209 71.9455 110.809C71.9455 111.873 71.2903 112.937 70.9376 114.001C70.4336 114.001 69.9296 114.001 69.4256 114.001C69.1233 112.886 68.5185 111.822 68.5185 110.708C68.4177 103.209 68.4177 95.6594 68.5185 88.1607C68.5689 82.79 70.484 78.1286 74.2638 74.2779C80.1602 68.3499 86.1071 62.5232 91.9028 56.5445C94.725 53.6058 97.6984 51.6298 102.285 53.6564C102.285 44.3844 102.285 35.5176 102.285 26.6509C99.6639 26.4989 98.404 27.7149 98.3536 30.8563C98.3032 35.6696 98.3536 40.483 98.3536 45.2964C98.3536 45.955 98.5552 46.7657 98.3032 47.3231C97.9504 48.0324 97.2449 48.5897 96.7409 49.1977C96.1361 48.6404 95.0274 48.0324 95.0274 47.4751C94.977 41.0403 94.8258 34.6563 95.2794 28.2722C95.5314 24.5229 100.017 22.2429 103.696 23.1549C104.804 23.4082 106.115 23.5095 107.223 23.2055C111.104 22.1922 115.035 24.3709 115.942 28.3229C116.194 29.4376 116.245 30.6536 116.245 31.8189C116.245 41.8003 116.194 51.7311 116.245 61.7125C116.245 64.7525 115.489 67.4886 113.876 70.0726C108.181 79.1926 102.738 88.5154 96.8417 97.5341C94.1706 101.689 92.6083 105.844 93.1123 110.809C93.2131 111.822 92.5075 112.937 92.1548 114.052C91.55 114.001 91.046 114.001 90.542 114.001Z" fill="#C5292B"/>
<path d="M62.3196 114.001C61.9669 112.937 61.3117 111.873 61.3117 110.809C61.2109 103.361 61.2613 95.9634 61.2613 88.5153C61.2613 84.1073 59.7998 80.2059 56.7256 77.0645C50.4259 70.6298 44.0255 64.2964 37.6754 57.8617C36.3147 56.4937 34.8532 55.6831 32.9885 56.7471C30.7206 58.0644 30.519 60.5471 32.6357 62.6751C37.373 67.4885 42.1104 72.2512 46.8981 77.0139C47.3013 77.4192 47.9565 77.7739 48.1076 78.2806C48.3596 79.1419 48.3596 80.1046 48.4604 81.0166C47.5029 80.9152 46.1926 81.2192 45.6382 80.6619C40.1953 75.4432 34.7524 70.1738 29.6119 64.6005C28.352 63.2324 27.6968 60.8004 27.6464 58.8751C27.4448 49.5017 27.5456 40.1283 27.596 30.7549C27.596 28.5255 26.7896 26.9548 24.5722 26.4988C22.3547 26.0428 20.5908 28.0188 20.5908 30.8562C20.5908 39.1149 20.9436 47.4243 20.49 55.6831C20.1372 62.2191 21.8003 67.7418 25.4289 73.1632C31.1238 81.6752 36.1635 90.6433 41.6568 99.3074C44.3279 103.513 43.5215 108.073 43.5719 112.582C43.5719 113.038 42.9671 113.545 42.6144 114.001C42.1104 114.001 41.6064 114.001 41.1024 114.001C40.7497 112.835 40.0441 111.67 40.1449 110.505C40.5481 105.843 39.1873 101.891 36.6675 97.9394C30.6702 88.6673 24.9753 79.2432 19.3813 69.7178C18.0709 67.4378 17.2142 64.5498 17.1638 61.8644C16.9118 51.731 17.0126 41.4963 17.063 31.2615C17.063 24.8268 20.8932 21.8881 27.0416 23.4588C27.7472 23.6615 28.6039 23.4081 29.3599 23.2055C33.5429 22.0401 37.9274 24.6241 38.1794 28.9815C38.5322 35.0616 38.381 41.1416 38.3306 47.2216C38.3306 47.8803 37.2219 48.539 36.6171 49.1977C36.0627 48.4883 35.0548 47.8297 35.0548 47.1203C34.9036 41.6989 35.0044 36.3282 34.954 30.9069C34.9036 27.7148 33.6941 26.5495 30.9726 26.7015C30.9726 35.5176 30.9726 44.3336 30.9726 53.403C31.7286 53.3017 32.2325 53.3017 32.6357 53.2004C35.5084 52.2884 37.9274 53.1497 39.9433 55.227C46.4949 61.7631 53.0466 68.2991 59.5478 74.9365C62.9748 78.4326 64.6883 82.8406 64.7891 87.7553C64.9403 95.5074 64.8395 103.31 64.7891 111.062C64.7891 112.075 64.1843 113.089 63.882 114.102C63.3276 114.001 62.8236 114.001 62.3196 114.001Z" fill="#C5292B"/>
<path d="M81.4705 0C83.94 1.16534 86.6615 1.97602 88.7781 3.59736C95.5314 8.71473 97.0937 18.1388 92.1043 25.0295C84.3936 35.6696 76.33 46.107 68.4177 56.6964C67.2082 58.3178 65.9986 58.3178 64.7891 56.6964C56.8263 46.107 48.7124 35.7203 41.052 24.9789C34.6012 15.9601 39.6409 3.24269 50.3755 0.506671C50.8291 0.405336 51.2827 0.152001 51.7362 0C53.3993 0 55.1128 0 56.7759 0C60.1526 1.72268 63.5796 3.44536 66.5026 4.9147C69.728 3.29336 73.0542 1.67201 76.4308 0C78.0939 0 79.757 0 81.4705 0ZM66.553 53.2004C67.6617 51.7311 68.7201 50.4137 69.6776 49.0457C76.0277 40.5843 82.4785 32.1229 88.7781 23.6108C92.7091 18.3415 92.1043 11.4001 87.5686 7.04272C82.9825 2.68535 76.2292 2.38135 71.2399 6.33338C69.4256 7.80273 68.1153 9.32274 69.3752 11.8561C69.7784 12.6161 69.7784 13.6294 69.8792 14.5414C69.98 15.8588 70.1816 17.6321 68.2665 17.5308C67.5609 17.4801 66.553 15.8588 66.4018 14.8961C65.6962 9.47474 62.4204 5.42138 57.3303 4.05336C52.5426 2.73602 47.3013 4.56003 44.3278 8.51207C41.1528 12.7681 40.6489 18.3921 43.7735 22.6988C51.1819 32.8829 58.8422 42.915 66.553 53.2004Z" fill="#C5292B"/>
</svg>
