<svg width="104" height="104" viewBox="0 0 104 104" fill="none" xmlns="http://www.w3.org/2000/svg">
<circle cx="52" cy="52" r="52" fill="#F1F1F2"/>
<path d="M43.6219 24L21 31.2054L28.2611 53.654L50.883 46.4486L43.6219 24Z" fill="#2791CD"/>
<path d="M61.3788 30.8185L49.7823 42.3261L61.3788 53.8337L72.9752 42.3261L61.3788 30.8185Z" fill="#FD7E23"/>
<path d="M53.3976 48.4378L37.7832 53.4113L42.795 68.9061L58.4094 63.9327L53.3976 48.4378Z" fill="#FC0D27"/>
<path d="M39.189 41.1605L34.549 42.5101L34.309 44.8917L31.909 45.6062L33.429 34.3332L35.749 33.6981L43.109 42.2719L40.709 42.9864L39.189 41.1605ZM37.909 39.5728L35.189 36.2385L34.709 40.5254L37.909 39.5728Z" fill="white"/>
<path d="M63.989 40.2872C64.309 40.3666 64.709 40.5254 64.949 40.7636C65.349 41.1605 65.509 41.6368 65.429 42.1925C65.349 42.7482 64.949 43.304 64.389 43.9391L61.909 46.4001L57.189 41.7162L59.509 39.414C60.069 38.8583 60.629 38.5407 61.189 38.3819C61.749 38.3026 62.149 38.4613 62.549 38.7789C62.789 39.017 62.949 39.2552 63.029 39.5728C63.109 39.8903 63.109 40.1285 63.029 40.446C63.269 40.3666 63.669 40.2872 63.989 40.2872ZM59.109 41.478L60.229 42.5895L61.349 41.478C61.589 41.2399 61.749 40.9223 61.829 40.6842C61.909 40.446 61.829 40.2079 61.589 40.0491C61.429 39.8903 61.189 39.8109 60.949 39.8109C60.709 39.8903 60.469 40.0491 60.229 40.2872L59.109 41.478ZM63.989 42.4307C64.069 42.1925 63.989 41.9544 63.749 41.7956C63.349 41.3987 62.869 41.478 62.309 42.1131L61.029 43.3833L62.229 44.5741L63.509 43.304C63.749 42.9864 63.909 42.6689 63.989 42.4307Z" fill="white"/>
<path d="M48.069 62.4363C47.349 62.3569 46.789 62.0393 46.229 61.6424C45.749 61.2455 45.349 60.6897 45.109 59.9753C44.869 59.2608 44.869 58.6257 45.029 57.9906C45.189 57.3555 45.509 56.7998 45.989 56.2441C46.469 55.7677 47.109 55.3708 47.829 55.1326C48.469 54.8945 49.029 54.8151 49.589 54.8945C50.149 54.9739 50.709 55.1326 51.189 55.3708L50.469 56.641C49.829 56.2441 49.109 56.1647 48.389 56.4028C47.909 56.5616 47.589 56.7998 47.269 57.0379C46.949 57.3555 46.789 57.673 46.709 58.07C46.629 58.4669 46.629 58.8638 46.789 59.3402C46.949 59.7371 47.189 60.134 47.429 60.3722C47.749 60.6104 48.069 60.8485 48.469 60.9279C48.869 61.0073 49.269 60.9279 49.749 60.8485C50.469 60.6104 50.949 60.134 51.269 59.4195L52.629 60.0546C52.389 60.531 52.069 61.0073 51.669 61.4042C51.269 61.8012 50.709 62.0393 50.069 62.2775C49.509 62.5157 48.789 62.595 48.069 62.4363Z" fill="white"/>
<path d="M79.5947 61.2935L64.5476 46.3617L49.5005 61.2935L64.5476 76.2253L79.5947 61.2935Z" fill="#1BB18A"/>
<path d="M64.789 54.1006L68.469 57.3555C69.349 58.1494 69.989 59.0226 70.389 59.8959C70.789 60.8485 70.869 61.7218 70.709 62.6744C70.549 63.6271 69.989 64.5003 69.349 65.2942C68.709 66.0881 67.829 66.6438 66.949 66.8819C66.069 67.1201 65.109 67.1201 64.149 66.8819C63.189 66.6438 62.229 66.0881 61.349 65.2942L57.669 62.0393L64.789 54.1006ZM62.549 63.6271C63.349 64.3416 64.229 64.7385 65.109 64.6591C65.989 64.6591 66.789 64.2622 67.429 63.5477C68.149 62.8332 68.389 61.9599 68.309 61.0867C68.229 60.2134 67.749 59.4195 66.949 58.7051L65.269 57.1967L60.869 62.1187L62.549 63.6271Z" fill="white"/>
<path d="M82.949 69.6605H31.269V80.9335H82.949V69.6605Z" fill="#F3B953"/>
<path d="M37.749 69.6605H35.989V74.0268H37.749V69.6605Z" fill="#B76830"/>
<path d="M43.909 69.6605H42.149V76.329H43.909V69.6605Z" fill="#B76830"/>
<path d="M49.749 69.6605H47.989V74.0268H49.749V69.6605Z" fill="#B76830"/>
<path d="M55.909 69.6605H54.149V76.329H55.909V69.6605Z" fill="#B76830"/>
<path d="M61.829 69.6605H60.069V74.0268H61.829V69.6605Z" fill="#B76830"/>
<path d="M67.989 69.6605H66.229V76.329H67.989V69.6605Z" fill="#B76830"/>
</svg>
