<svg width="135" height="115" viewBox="0 0 135 115" fill="none" xmlns="http://www.w3.org/2000/svg">
<path d="M12 57.389C12.2294 54.8371 12.3442 52.2621 12.6883 49.7101C13.8355 41.2724 16.8411 33.5245 21.6133 26.4663C22.7604 24.788 24.8483 24.4201 26.4543 25.5467C28.0374 26.6502 28.4274 28.6964 27.2803 30.4207C24.3206 34.904 22.118 39.7091 20.6955 44.905C14.5008 67.4591 25.9266 91.9214 47.2181 101.601C72.2952 112.981 101.112 101.899 112.171 76.6324C120.063 58.5616 115.75 36.6743 101.525 22.9027C91.0628 12.8097 78.5128 8.28051 64.0585 9.08519C59.9057 9.3151 55.8677 10.2347 51.8985 11.5222C50.3384 12.028 48.8012 11.4073 47.9523 10.0968C47.1492 8.83229 47.2181 7.06199 48.2505 6.00441C48.7553 5.47562 49.4895 5.06179 50.1778 4.83188C70.735 -2.11137 93.9996 3.98122 108.523 20.1668C118.595 31.3634 123.39 44.5831 122.931 59.6192C122.197 85.4379 102.856 107.693 77.4345 112.13C75.5302 112.475 73.6029 112.705 71.6757 112.981C68.8766 112.981 66.1005 112.981 63.3014 112.981C63.049 112.912 62.8196 112.82 62.5672 112.797C57.9097 112.406 53.321 111.51 48.9618 109.831C28.9781 102.06 16.841 87.6451 12.8718 66.4704C12.3442 63.6196 12.2753 60.6997 12 57.8259C12 57.6649 12 57.527 12 57.389Z" fill="#CB4344"/>
<path d="M60.6629 77.0236C61.1676 76.3798 61.3971 76.012 61.7183 75.6901C73.167 64.2176 84.6157 52.7682 96.0645 41.2957C96.8446 40.514 97.6705 39.8933 98.8177 39.8703C100.24 39.8473 101.319 40.4221 102.007 41.6636C102.672 42.9051 102.603 44.1466 101.8 45.3191C101.525 45.71 101.181 46.0319 100.837 46.3767C88.4702 58.7458 76.1267 71.1379 63.7602 83.507C61.5577 85.7141 59.8369 85.7141 57.6343 83.507C49.7648 75.6211 41.8952 67.7582 34.0486 59.8494C33.4291 59.2056 32.9014 58.286 32.7179 57.4123C32.3966 55.9409 33.0849 54.7454 34.3927 54.0097C35.7005 53.297 37.0083 53.4119 38.2013 54.3086C38.5225 54.5385 38.7978 54.8604 39.0961 55.1362C45.9791 62.0335 52.8621 68.9078 59.7451 75.8051C60.0205 76.058 60.227 76.4258 60.6629 77.0236Z" fill="#CB4344"/>
</svg>
