<svg width="104" height="104" viewBox="0 0 104 104" fill="none" xmlns="http://www.w3.org/2000/svg">
<circle cx="52" cy="52" r="52" fill="#F1F1F2"/>
<path d="M46.5107 25.8042L26.2971 45.1591C26.2971 45.1591 21.6634 47.8287 25.5584 51.8331C29.4534 55.8376 53.2934 79.5306 53.2934 79.5306C53.2934 79.5306 56.3154 84.8698 61.6878 79.5306C67.0602 74.1913 78.8123 62.8454 78.8123 62.8454V49.1635L55.9796 25.8042C56.0468 25.8042 51.9503 20.5984 46.5107 25.8042Z" fill="#FC5640"/>
<path d="M79.0138 49.4972L71.6267 56.1713L79.0138 62.8454V49.4972Z" fill="white"/>
<path d="M58.8673 53.3014L55.4424 52.634L55.3752 52.7008L53.8978 54.1023L55.9125 56.1046L54.2336 57.7731L47.048 50.5651L50.2043 47.495C50.8758 46.8943 51.5474 46.4271 52.2189 46.1602C52.8905 45.8932 53.562 45.8932 54.2336 46.0267C54.9051 46.1602 55.4424 46.4939 55.9796 47.0278C56.5169 47.5617 56.8526 48.1624 56.9869 48.8298C57.1212 49.4972 57.0541 50.1646 56.7855 50.832L60.7476 51.5662L58.8673 53.3014ZM52.9576 48.1624C52.4875 48.2291 51.9503 48.4961 51.4802 48.9633L50.07 50.2981L52.5547 52.8343L53.965 51.4994C54.5022 51.0323 54.7708 50.4983 54.7708 50.0311C54.838 49.564 54.6365 49.0968 54.2336 48.6963C53.8978 48.2959 53.4277 48.0957 52.9576 48.1624Z" fill="white"/>
<path d="M53.8978 62.8454C47.8538 62.8454 42.8844 57.9733 42.8844 51.8999C42.8844 45.8265 47.7867 40.9544 53.8978 40.9544C60.0089 40.9544 64.9112 45.8265 64.9112 51.8999C64.9112 57.9733 59.9418 62.8454 53.8978 62.8454ZM53.8978 41.6218C48.1896 41.6218 43.5559 46.2269 43.5559 51.8999C43.5559 57.5729 48.1896 62.178 53.8978 62.178C59.606 62.178 64.2397 57.5729 64.2397 51.8999C64.2397 46.2269 59.5388 41.6218 53.8978 41.6218Z" fill="white"/>
<path d="M35.0944 30.2091H30.3935V79.931H35.0944V30.2091Z" fill="#3E6076"/>
<path d="M31.468 30.2091C30.9979 29.4082 30.8636 28.0067 30.3935 27.673C29.8563 27.3393 29.9906 26.3382 30.9308 25.337C31.8709 24.3359 32.744 22 32.744 22V30.2091H31.468Z" fill="#FABA2C"/>
<path d="M34.0871 30.2091C34.5571 29.4082 34.6915 28.0067 35.1615 27.673C35.6316 27.3393 35.4973 26.3382 34.6243 25.337C33.7513 24.3359 32.744 22 32.744 22V30.2091H34.0871Z" fill="#FABA2C"/>
<path d="M30.3935 79.0634V80.3982H31.4009H35.0944V79.0634H33.3483V67.2503L32.744 66.5161L32.0052 67.2503V79.0634H30.3935Z" fill="#FABA2C"/>
<path d="M31.4008 81.3993V80.3982H34.0871V81.3993C34.0871 81.3993 33.8856 82 33.2812 82C32.6768 82 31.9381 82 31.9381 82C31.9381 82 31.4008 81.8665 31.4008 81.3993Z" fill="#3E6076"/>
</svg>
