<svg width="135" height="115" viewBox="0 0 135 115" fill="none" xmlns="http://www.w3.org/2000/svg">
<path d="M11 58.2604C12.5067 55.1429 13.6116 51.7238 15.6707 49.0085C18.3324 45.4888 22.4004 43.9301 27.0711 43.4775C27.5733 30.1025 32.7462 19.0405 43.544 10.9451C51.2782 5.16267 60.0671 2.59829 69.6093 3.05083C89.1458 4.00618 107.176 19.5433 108.029 43.4272C113.453 44.1312 118.124 46.3939 121.037 51.1707C122.343 53.3328 122.996 55.8972 124 58.2604C124 60.4225 124 62.6349 124 64.7971C123.448 66.5067 123.046 68.3671 122.242 69.9761C119.48 75.5574 115.01 78.876 108.732 79.4794C105.92 79.7308 103.057 79.7308 100.195 79.6805C97.1813 79.6302 95.8253 78.1218 95.8253 75.1049C95.8253 66.205 95.8253 57.3553 95.8253 48.4554C95.8253 44.8351 97.1311 43.5278 100.797 43.4775C101.701 43.4775 102.605 43.4775 103.861 43.4775C103.409 30.907 98.5876 20.8506 88.4929 13.8112C75.8369 5.01182 62.3773 4.45872 49.0684 12.1016C37.3667 18.8896 31.6916 29.5997 31.0387 43.4775C32.6458 43.4775 33.9516 43.377 35.2573 43.4775C37.7182 43.6284 39.0742 45.0865 39.1244 47.5504C39.1747 56.8525 39.1747 66.1547 39.1244 75.4568C39.1244 78.2224 38.1702 79.0269 34.0018 80.0325C38.7227 87.4742 42.3889 95.7205 51.68 98.6368C54.4924 99.4916 57.5058 99.8436 60.4187 100.397C62.076 96.6255 64.2356 94.1114 68.2031 93.9606C72.0702 93.8098 75.5858 96.525 76.3391 100.095C77.1427 104.118 75.0836 108.09 71.4173 109.498C67.6004 110.956 63.4822 109.447 61.5738 105.777C60.8707 104.47 60.1173 104.067 58.7111 104.017C48.7169 103.514 41.0329 98.9888 35.7596 90.4409C34.9058 89.0832 34.0018 87.7759 33.2484 86.368C31.1391 82.3958 28.7787 79.5297 23.6058 78.8257C17.1773 77.9207 13.3604 72.993 11.5524 66.7581C11.3516 66.1044 11.2009 65.501 11 64.8473C11 62.6349 11 60.4728 11 58.2604ZM35.1067 47.5001C27.8244 46.9973 20.944 46.8464 16.7756 54.0367C13.9129 58.9644 14.3649 66.2552 17.78 70.6298C22.3502 76.5128 28.6782 76.1105 35.1067 75.658C35.1067 66.1547 35.1067 56.9028 35.1067 47.5001ZM100.044 47.4498C100.044 57.0034 100.044 66.3558 100.044 75.7083C107.075 76.1105 113.956 76.4122 118.024 69.423C121.087 64.0931 121.087 58.4615 117.722 53.2322C113.504 46.6956 106.774 47.0475 100.044 47.4498ZM72.6227 102.006C72.6729 99.8939 70.8649 98.0334 68.7053 97.9329C66.3951 97.8826 64.4364 99.6425 64.4364 101.905C64.4364 104.118 66.3951 106.028 68.6049 106.028C70.7142 105.978 72.5724 104.118 72.6227 102.006Z" fill="#C52C29"/>
<path d="M68.0022 13.0575C69.1071 13.1581 70.7644 13.3089 72.4218 13.5603C73.828 13.7614 75.4853 14.0631 75.2844 16.0241C75.0333 18.0354 73.3258 17.8343 71.9195 17.5326C66.9978 16.5772 62.1764 16.9795 57.7569 19.1919C54.5427 20.8512 51.68 23.2144 48.7671 25.4269C47.7124 26.2314 46.6076 27.3376 45.6533 25.9297C45.1511 25.2257 45.352 23.3653 45.9547 22.7116C51.6298 16.3761 58.912 13.3089 68.0022 13.0575Z" fill="#C52C29"/>
<path d="M81.6627 16.1749C83.1693 17.7839 84.224 18.8902 85.2787 19.9964C84.5756 20.65 83.7218 21.9071 83.1693 21.8065C81.6627 21.4545 79.7542 21.002 79.8547 18.8902C79.8547 18.0856 80.7587 17.432 81.6627 16.1749Z" fill="#C52C29"/>
</svg>
