<svg width="104" height="104" viewBox="0 0 104 104" fill="none" xmlns="http://www.w3.org/2000/svg">
<circle cx="52" cy="52" r="52" fill="#F1F1F2"/>
<path d="M67.6156 34.907H36.3844C33.027 34.907 30.3724 32.2183 30.3724 28.9919C30.3724 25.6887 33.027 23 36.3844 23H67.6156C70.973 23 73.6276 25.6887 73.6276 28.9151C73.7057 32.2183 70.973 34.907 67.6156 34.907Z" fill="#FBB42B"/>
<path d="M39.3513 34.907H36.3844V41.8208H39.3513V34.907Z" fill="#553435"/>
<path d="M66.2883 34.907H63.3214V41.8208H66.2883V34.907Z" fill="#553435"/>
<path d="M26 45.6617V80.0768H77.9219V45.6617C77.9219 45.6617 78.8589 41.8208 74.1742 41.8208C69.4895 41.8208 30.8408 41.8208 30.8408 41.8208C30.8408 41.8208 26 40.8221 26 45.6617Z" fill="#A6CDD6"/>
<path d="M64.3363 59.7197H39.7417V70.628H64.3363V59.7197Z" fill="#7B1D10"/>
<path d="M36.6186 52.9596V59.7197H42.8649V49.7331C42.8649 49.7331 36.6186 48.504 36.6186 52.9596Z" fill="#F04A41"/>
<path d="M67.4594 52.9596V59.7197H61.2132V49.7331C61.2132 49.7331 67.4594 48.504 67.4594 52.9596Z" fill="#F04A41"/>
<path d="M48.955 49.7332H42.8649V59.7197H48.955V49.7332Z" fill="white"/>
<path d="M55.045 49.7332H48.955V59.7197H55.045V49.7332Z" fill="#F04A41"/>
<path d="M61.1351 49.7332H55.045V59.7197H61.1351V49.7332Z" fill="white"/>
</svg>
