<svg width="70" height="70" viewBox="0 0 70 70" fill="none" xmlns="http://www.w3.org/2000/svg">
<path d="M62 9.228C62 26.7075 62 44.2397 62 61.7192C61.2667 64.4652 59.5381 66.2607 56.7619 66.9472C41.9381 66.9472 27.0619 66.9472 12.2381 66.9472C9.4619 66.2079 7.73333 64.4652 7 61.7192C7 44.2397 7 26.7603 7 9.228C7.73333 6.48198 9.4619 4.73931 12.2381 4C27.0619 4 41.9381 4 56.7619 4C59.5381 4.73931 61.2667 6.48198 62 9.228ZM59.4333 35.4736C59.4333 27.2883 59.4333 19.1031 59.4333 10.9179C59.4333 7.9078 58.0714 6.53479 55.0333 6.53479C41.3095 6.53479 27.6381 6.53479 13.9143 6.53479C10.8762 6.53479 9.51429 7.9078 9.51429 10.9179C9.51429 27.2883 9.51429 43.6588 9.51429 59.9765C9.51429 63.0922 10.8762 64.4124 13.9667 64.4124C27.6381 64.4124 41.3095 64.4124 54.9286 64.4124C58.0714 64.4124 59.381 63.0922 59.381 59.9765C59.4857 51.8441 59.4333 43.6588 59.4333 35.4736Z" fill="black"/>
<path d="M12.2381 4C9.4619 4.73931 7.73333 6.48198 7 9.228C7 7.48533 7 5.74267 7 4C8.72857 4 10.5095 4 12.2381 4Z" fill="white"/>
<path d="M61.9998 9.228C61.2665 6.48198 59.5379 4.6865 56.7617 4C58.4903 4 60.2712 4 61.9998 4C61.9998 5.74267 61.9998 7.48533 61.9998 9.228Z" fill="white"/>
<path d="M7 61.772C7.73333 64.518 9.4619 66.3135 12.2381 67C10.5095 67 8.72857 67 7 67C7 65.2573 7 63.5146 7 61.772Z" fill="white"/>
<path d="M56.7617 67C59.5379 66.2607 61.2665 64.518 61.9998 61.772C61.9998 63.5146 61.9998 65.2573 61.9998 67C60.2712 67 58.4903 67 56.7617 67Z" fill="white"/>
<path d="M39.4771 17.6244C43.2485 17.6244 46.9676 17.6244 50.739 17.6244C51.1057 17.6244 51.6295 17.5188 51.8914 17.73C52.3105 17.9941 52.8343 18.5222 52.8343 18.8918C52.8343 19.3143 52.3105 19.7896 51.8914 20.1064C51.6819 20.2648 51.2105 20.212 50.8962 20.212C43.3533 20.212 35.8105 20.212 28.32 20.212C28.2152 20.212 28.1628 20.212 28.0581 20.212C27.1152 20.212 26.1724 20.0536 26.2247 18.8918C26.2771 17.8357 27.1152 17.6772 28.0057 17.6772C31.7771 17.6772 35.6009 17.6244 39.4771 17.6244Z" fill="black"/>
<path d="M39.581 53.3227C35.862 53.3227 32.1429 53.3227 28.4762 53.3227C28.162 53.3227 27.7953 53.4283 27.5858 53.3227C27.062 52.953 26.3286 52.5834 26.2239 52.0553C26.0667 51.2632 26.7477 50.8407 27.5858 50.8407C30.1001 50.8407 32.6667 50.8407 35.181 50.8407C40.262 50.8407 45.3953 50.8407 50.4762 50.8407C50.8429 50.8407 51.1572 50.8407 51.5239 50.8407C52.3096 50.8935 52.8858 51.2104 52.8858 52.1081C52.8858 52.953 52.3096 53.3227 51.5239 53.3755C50.4239 53.3755 49.3239 53.3755 48.2762 53.3755C45.3429 53.3227 42.462 53.3227 39.581 53.3227Z" fill="black"/>
<path d="M39.4769 36.5297C35.6531 36.5297 31.7769 36.5297 27.9531 36.5297C27.0626 36.5297 26.1721 36.3713 26.1721 35.3151C26.1197 34.2062 27.0102 34.0477 27.9007 34.0477C35.6007 34.0477 43.3531 34.0477 51.0531 34.0477C51.9436 34.0477 52.834 34.1005 52.834 35.2623C52.834 36.4769 51.8912 36.5297 51.0007 36.5297C47.1245 36.5297 43.3007 36.5297 39.4769 36.5297Z" fill="black"/>
<path d="M20.095 38.1668C18.576 38.1668 17.4236 37.1107 17.4236 35.5792C17.3712 33.995 18.5236 32.8332 20.095 32.886C21.5617 32.886 22.7141 34.0478 22.7141 35.5264C22.7141 37.005 21.5617 38.114 20.095 38.1668Z" fill="#DB3028"/>
<path d="M19.9903 21.6907C18.4713 21.6379 17.3713 20.5289 17.4237 18.9975C17.4237 17.5188 18.5761 16.3571 20.0427 16.3571C21.5094 16.3571 22.7665 17.6244 22.7141 19.1559C22.6618 20.5817 21.5094 21.6907 19.9903 21.6907Z" fill="#DB3028"/>
<path d="M20.0953 49.3093C21.6143 49.3093 22.7667 50.4711 22.7667 51.9497C22.7667 53.4284 21.6143 54.6429 20.1476 54.6429C18.6286 54.6957 17.4238 53.4812 17.4238 51.8969C17.4238 50.4183 18.5238 49.3093 20.0953 49.3093Z" fill="#DB3028"/>
</svg>
