<svg width="124" height="124" viewBox="0 0 124 124" fill="none" xmlns="http://www.w3.org/2000/svg">
<path d="M84.2524 67.604C81.0968 67.604 78.5941 65.3189 78.5941 62.2721C78.4853 59.0077 81.0968 56.3961 84.2524 56.3961C87.2992 56.3961 89.9108 59.1165 89.9108 62.1633C89.8019 65.1012 87.2992 67.604 84.2524 67.604Z" fill="#C42927"/>
<path d="M67.6039 61.9456C67.6039 64.9924 65.21 67.4951 62.1632 67.604C59.0076 67.7128 56.3961 65.1012 56.3961 62.0544C56.3961 59.0077 59.0076 56.3961 62.0544 56.3961C65.1012 56.3961 67.6039 58.8988 67.6039 61.9456Z" fill="#C42927"/>
<path d="M45.7323 62.0544C45.7323 65.21 43.1208 67.7128 39.9652 67.604C36.9184 67.4951 34.4157 64.9924 34.5245 61.9456C34.6333 58.8988 37.0272 56.3961 40.074 56.3961C43.1208 56.3961 45.7323 58.8988 45.7323 62.0544Z" fill="#C42927"/>
<path d="M61.9456 112C34.4157 112 12 89.5843 12 61.9456C12 34.3069 34.4157 12 61.9456 12C89.4755 12 111.891 34.4157 111.891 61.9456C111.891 89.4755 89.5843 112 61.9456 112ZM61.9456 18.5288C38.0065 18.5288 18.5288 38.0065 18.5288 61.9456C18.5288 85.8847 38.0065 105.362 61.9456 105.362C85.8847 105.362 105.471 85.9935 105.471 61.9456C105.471 37.8977 85.9935 18.5288 61.9456 18.5288Z" fill="#3B3B3B"/>
</svg>
