<svg width="135" height="115" viewBox="0 0 135 115" fill="none" xmlns="http://www.w3.org/2000/svg">
<path d="M39.9364 43.9202C43.2519 43.9202 46.3463 43.9202 49.496 43.9202C49.717 43.9202 49.9933 43.6989 50.1591 43.4776C53.364 38.3887 57.4531 34.1847 62.4816 30.9764C66.5706 28.3766 71.0465 26.6065 75.7987 25.6662C81.7113 24.5046 87.6238 24.6705 93.4259 26.2747C101.438 28.5426 108.18 32.8572 113.484 39.329C117.076 43.8095 119.673 48.7879 121 54.3194C123.597 64.9952 122.049 75.1179 116.247 84.4661C112.821 90.0529 108.124 94.4781 102.433 97.7417C95.9677 101.393 89.0605 103.107 81.656 102.775C73.8647 102.444 66.7917 99.9543 60.4923 95.3632C59.2766 94.4781 59.0003 93.4825 59.7187 92.4315C60.3818 91.3805 61.6527 91.2145 62.7026 91.989C66.2391 94.5888 70.1071 96.5248 74.362 97.5758C84.4189 100.12 93.868 98.6821 102.488 92.9293C110.832 87.3978 115.916 79.5984 117.684 69.697C118.9 62.8932 118.071 56.2554 115.308 49.8942C112.158 43.0351 107.296 37.6142 100.665 33.6869C97.4597 31.8062 94.089 30.4786 90.442 29.7595C82.5954 28.1554 75.0251 29.0404 67.8416 32.5806C62.5921 35.1251 58.282 38.8312 54.9113 43.5883C54.856 43.6436 54.856 43.7542 54.8007 43.8648C55.0218 43.8648 55.1876 43.9202 55.4086 43.9202C58.3925 43.9202 61.3764 43.9202 64.3603 43.9202C65.1892 43.9202 65.8523 44.2521 66.1838 44.9711C66.5154 45.6902 66.5154 46.4093 66.0733 47.0731C65.6313 47.7369 64.9129 47.9582 64.084 47.9582C61.3764 47.9582 58.6688 47.9582 55.9612 47.9582C45.0201 47.9582 34.0791 47.9582 23.1933 47.9582C22.3092 47.9582 21.5356 47.8475 20.983 47.0178C20.541 46.354 20.4857 45.6349 20.8725 44.9711C21.2593 44.2521 21.8671 43.9202 22.6407 43.9202C25.0721 43.9202 27.5034 43.9202 29.8795 43.9202C31.5372 43.9202 33.195 43.9202 34.8527 43.9202C35.129 43.9202 35.5158 43.6989 35.5711 43.4776C40.1022 33.0784 47.341 25.0577 57.1216 19.305C57.1768 19.305 57.1768 19.2496 57.2873 19.139C57.1768 18.9178 57.0663 18.6412 56.9005 18.3646C55.7954 16.2073 54.6902 13.9947 53.5851 11.8374C52.922 10.5652 53.2535 9.51419 54.5245 8.85041C57.3426 7.3569 60.216 5.91871 63.0894 4.53584C64.1393 4.038 65.2445 4.36989 65.8523 5.64214C67.1785 8.24194 68.4494 10.8418 69.7756 13.4416C69.9966 13.8288 70.1071 14.05 70.6597 13.9394C73.9752 13.1097 77.3459 12.6671 80.7719 12.5012C80.8271 12.5012 80.9377 12.4459 81.0482 12.4459C81.0482 9.68014 81.0482 6.9697 81.0482 4.038C80.0535 4.038 79.0036 4.038 77.9537 4.038C76.9038 4.038 76.1302 3.42953 75.9092 2.48918C75.6329 1.16162 76.517 0 77.9537 0C80.2193 0 82.5401 0 84.8057 0C85.9108 0 87.016 0 88.0659 0C89.3921 0 90.2762 0.829726 90.2762 1.99134C90.2762 3.20827 89.3921 4.038 88.1212 4.038C87.1265 4.038 86.1319 4.038 85.1372 4.038C85.1372 6.85907 85.1372 9.68014 85.1372 12.4459C86.9608 12.6671 88.7842 12.8331 90.5525 13.1097C97.9018 14.2713 104.643 16.9264 110.887 21.0197C116.855 25.0024 121.773 29.9808 125.641 35.9548C129.62 42.0948 132.162 48.8432 133.211 56.0895C134.703 66.0462 133.377 75.671 129.233 84.798C124.757 94.6441 117.85 102.333 108.567 107.809C100.499 112.621 91.7129 114.945 82.3191 114.945C63.3104 114.945 44.357 114.945 25.3484 114.945C23.5801 114.945 22.5302 113.838 23.0276 112.345C23.3038 111.515 23.9669 110.962 24.8511 110.907C25.2379 110.907 25.5694 110.907 25.9562 110.907C40.9863 110.907 55.9612 110.907 70.9913 110.907C74.9146 110.907 78.7826 110.907 82.7059 110.907C94.9179 110.796 105.583 106.647 114.59 98.3502C122.105 91.4358 126.802 82.9173 128.846 72.9053C129.841 67.9822 130.007 63.0592 129.454 58.0808C128.846 52.7153 127.299 47.571 124.923 42.7585C120.889 34.4613 114.921 27.8788 106.964 23.1217C98.0675 17.7561 88.3974 15.5988 78.1195 16.6498C69.9414 17.4242 62.4816 20.3006 55.7401 25.0024C49.2197 29.5936 44.136 35.457 40.5443 42.5926C40.3785 42.9798 40.2127 43.4223 39.9364 43.9202ZM61.0449 17.203C62.8131 16.4839 64.5814 15.7648 66.3496 15.0457C65.2997 12.999 64.3051 11.0077 63.2552 8.96104C61.4869 9.84608 59.8845 10.6758 58.1715 11.5608C59.1661 13.4969 60.0502 15.3223 61.0449 17.203Z" fill="#C52C29"/>
<path d="M31.5372 64.6633C31.703 62.34 31.7583 60.1828 31.9793 58.0255C32.0898 56.532 32.3661 55.0938 32.6424 53.6556C32.8634 52.5493 33.9133 51.8855 35.0737 52.1621C36.1236 52.3833 36.7867 53.4343 36.5657 54.5406C35.9026 57.8595 35.6263 61.2337 35.7368 64.6633C38.6655 64.6633 41.4836 64.6633 44.357 64.6633C44.4123 63.2251 44.4123 61.7869 44.5781 60.3487C44.9649 57.7489 45.5174 55.2044 46.07 52.6046C46.291 51.443 47.5067 50.8345 48.5566 51.1664C49.6618 51.443 50.2696 52.6046 49.9381 53.7662C48.7224 57.9148 48.2803 62.1188 48.5014 66.4334C48.6119 67.9269 47.783 68.7566 46.291 68.7566C31.6478 68.7566 17.0045 68.7566 2.36115 68.7566C1.53229 68.7566 0.813937 68.5906 0.316618 67.8162C-0.512248 66.4887 0.371875 64.7739 1.97435 64.7186C3.0795 64.6633 4.1294 64.7186 5.23456 64.7186C13.7442 64.7186 22.2539 64.7186 30.7636 64.7186C30.9847 64.6633 31.2609 64.6633 31.5372 64.6633Z" fill="#C52C29"/>
<path d="M50.8222 85.6277C50.0486 84.1896 49.2197 82.9173 48.6119 81.5898C47.7277 79.709 46.9541 77.7177 46.1805 75.7817C45.7385 74.7307 46.0147 73.901 46.7331 73.2925C47.3409 72.7947 48.3356 72.6287 48.9987 73.0712C49.4407 73.4031 49.8275 73.9563 49.9933 74.4541C51.2642 78.2709 53.0325 81.811 55.4638 85.0193C55.7954 85.5171 56.1822 85.6277 56.79 85.6277C59.4424 85.5724 62.0947 85.6277 64.7471 85.6277C65.6312 85.6277 66.2391 86.1256 66.5706 86.9C66.9022 87.6191 66.7364 88.3382 66.2391 88.9467C65.7418 89.4998 65.1339 89.6657 64.4156 89.6657C61.1554 89.6657 57.8399 89.6657 54.5797 89.6657C50.1591 89.6657 45.7937 89.6104 41.3731 89.6104C35.2948 89.6104 29.2717 89.6657 23.1933 89.6657C21.7566 89.6657 20.8725 88.836 20.9277 87.5638C20.983 86.5681 21.7013 85.7384 22.7512 85.6831C23.3038 85.6278 23.8564 85.6831 24.409 85.6831C28.3875 85.6831 32.4213 85.6831 36.5657 85.6831C36.4552 85.4065 36.3446 85.1299 36.2341 84.9087C34.8527 81.8663 33.7475 78.7134 33.0292 75.5051C32.7529 74.2882 33.3607 73.1819 34.4659 72.9606C35.6816 72.684 36.6762 73.2925 36.9525 74.6201C37.7813 78.2709 39.1075 81.7004 40.71 85.0746C40.931 85.5724 41.2073 85.7384 41.8152 85.7384C44.5228 85.6831 47.2304 85.7384 49.938 85.7384C50.1591 85.6277 50.4354 85.6277 50.8222 85.6277Z" fill="#C52C29"/>
<path d="M91.8234 69.7523C94.6968 72.5734 97.515 75.3945 100.388 78.2155C100.941 78.7687 101.438 79.2665 101.991 79.8197C102.875 80.76 102.875 81.9217 102.101 82.6408C101.217 83.5258 100.112 83.4705 99.1175 82.5301C95.8572 79.2665 92.597 76.0029 89.3368 72.7947C89.2263 72.684 89.1711 72.6287 89.0053 72.4628C86.2424 74.1775 83.2585 74.6754 80.1641 73.6797C77.7327 72.9053 75.8539 71.4118 74.4725 69.2545C71.7649 64.9399 72.5937 59.2425 76.4065 55.9236C80.3851 52.4387 86.0214 52.4387 90.1104 55.8683C93.9785 59.2978 94.8073 65.2165 91.8234 69.7523ZM83.3137 70.1949C86.795 70.1949 89.6684 67.3185 89.6131 63.8336C89.6131 60.2381 86.7397 57.4171 83.2032 57.4724C79.6667 57.5277 76.8486 60.4041 76.9038 63.9443C76.9038 67.4291 79.7772 70.2502 83.3137 70.1949Z" fill="#C52C29"/>
<path d="M55.3533 102.997C55.3533 103.826 55.0218 104.49 54.3034 104.822C53.5298 105.209 52.8115 105.154 52.0931 104.656C49.496 102.665 47.0647 100.507 44.8543 98.0183C44.4123 97.5205 43.9702 97.078 43.5834 96.5248C42.8651 95.5845 42.9756 94.3675 43.8045 93.6484C44.6886 92.9293 45.9595 93.04 46.7331 93.9803C48.9987 96.6908 51.5405 99.0693 54.3034 101.227C55.077 101.835 55.3533 102.278 55.3533 102.997Z" fill="#C52C29"/>
</svg>
