<svg width="70" height="70" viewBox="0 0 70 70" fill="none" xmlns="http://www.w3.org/2000/svg">
<path d="M40.8138 37.8014C40.6694 37.8014 40.5828 37.8014 40.4673 37.8014C28.9727 37.8014 17.507 37.8014 6.01239 37.8014C5.00156 37.8014 4.16401 37.4837 3.55751 36.6462C2.92213 35.7798 2.83549 34.8267 3.2687 33.8447C3.7308 32.8628 4.53946 32.3429 5.60805 32.2563C5.72358 32.2563 5.86798 32.2563 5.98351 32.2563C17.4781 32.2563 28.9727 32.2563 40.4384 32.2563C40.525 32.2563 40.6117 32.2563 40.785 32.2563C40.6983 32.1696 40.6406 32.1119 40.5828 32.0541C39.0232 30.4946 37.4348 28.9061 35.8752 27.3465C35.2398 26.7112 34.9221 25.9314 34.9799 25.0072C35.0954 23.5631 36.3662 22.4368 37.8102 22.4946C38.5611 22.5234 39.1965 22.8122 39.7452 23.361C42.9799 26.5956 46.1857 29.8014 49.4203 33.0361C50.5467 34.1624 50.5756 35.8664 49.4492 37.0216C49.1604 37.3393 48.8427 37.6281 48.5539 37.9169C45.6369 40.8339 42.72 43.722 39.8319 46.639C39.312 47.1588 38.7344 47.4765 38.0124 47.5631C36.5972 47.7364 35.1821 46.639 35.0088 45.2238C34.8933 44.2707 35.1532 43.4621 35.8174 42.7978C37.4059 41.2094 38.9943 39.6209 40.5828 38.0325C40.6406 37.9458 40.6983 37.8881 40.8138 37.8014Z" fill="#DB3028"/>
<path d="M35.009 3C21.4638 3 9.88261 11.4332 5.20391 23.3321C5.08839 23.6209 4.97286 23.9386 4.85734 24.2274C4.71293 24.8917 4.71293 25.7292 5.63712 26.1336C6.99452 26.7401 7.77431 25.1805 8.00535 24.6606C8.03423 24.6029 8.03423 24.574 8.06312 24.5162C12.2508 13.8014 22.7057 6.20578 34.9512 6.20578C50.8934 6.20578 63.8032 19.1155 63.8032 35.0578C63.8032 51 50.8934 63.9097 34.9512 63.9097C22.6191 63.9097 12.0776 56.1697 7.94759 45.2527C7.88983 45.0794 7.80319 44.9061 7.74543 44.704C7.51438 44.2996 7.05229 43.8664 6.09922 44.1552C4.51077 44.5884 5.03062 46.2058 5.05951 46.2924C9.62268 58.3935 21.3194 67.0289 35.009 67.0289C52.6841 67.0289 67.009 52.704 67.009 35.0289C67.009 17.3249 52.6841 3 35.009 3Z" fill="black"/>
</svg>
