<svg width="120" height="120" viewBox="0 0 120 120" fill="none" xmlns="http://www.w3.org/2000/svg">
<path d="M76.6571 63.8519C74.23 63.8519 72.305 62.0944 72.305 59.751C72.2213 57.2402 74.23 55.2316 76.6571 55.2316C79.0005 55.2316 81.0091 57.3239 81.0091 59.6673C80.9254 61.927 79.0005 63.8519 76.6571 63.8519Z" fill="#78B000"/>
<path d="M63.8519 59.4999C63.8519 61.8433 62.0107 63.7682 59.6673 63.8519C57.2402 63.9356 55.2316 61.927 55.2316 59.5836C55.2316 57.2402 57.2402 55.2316 59.5836 55.2316C61.927 55.2316 63.8519 57.1565 63.8519 59.4999Z" fill="#FF8D08"/>
<path d="M47.0296 59.5836C47.0296 62.0107 45.021 63.9356 42.5939 63.8519C40.2505 63.7682 38.3255 61.8433 38.4092 59.4999C38.4929 57.1565 40.3342 55.2316 42.6776 55.2316C45.021 55.2316 47.0296 57.1565 47.0296 59.5836Z" fill="#C42927"/>
<path fill-rule="evenodd" clip-rule="evenodd" d="M59.5 25.1915C40.5519 25.1915 25.1915 40.5519 25.1915 59.5C25.1915 78.4481 40.5519 93.8085 59.5 93.8085C78.4481 93.8085 93.8085 78.4481 93.8085 59.5C93.8085 40.5519 78.4481 25.1915 59.5 25.1915ZM22 59.5C22 38.7893 38.7893 22 59.5 22C80.2107 22 97 38.7893 97 59.5C97 80.2107 80.2107 97 59.5 97C38.7893 97 22 80.2107 22 59.5Z" fill="black"/>
</svg>
