<svg width="120" height="120" viewBox="0 0 120 120" fill="none" xmlns="http://www.w3.org/2000/svg">
<g clip-path="url(#clip0)">
<path d="M111.387 112H8.6129C4.42581 112 1 108.589 1 104.42V42.58C1 38.411 4.42581 35 8.6129 35H111.387C115.574 35 119 38.411 119 42.58V104.42C119 108.589 115.574 112 111.387 112Z" fill="white"/>
<path d="M111.429 113H8.57143C3.87302 113 0 109.142 0 104.461V42.5388C0 37.8583 3.87302 34 8.57143 34H111.429C116.127 34 120 37.8583 120 42.5388V104.461C120 109.142 116.127 113 111.429 113ZM8.57143 35.8975C4.88889 35.8975 1.90476 38.8703 1.90476 42.5388V104.461C1.90476 108.13 4.88889 111.102 8.57143 111.102H111.429C115.111 111.102 118.095 108.13 118.095 104.461V42.5388C118.095 38.8703 115.111 35.8975 111.429 35.8975H8.57143Z" fill="black"/>
<path fill-rule="evenodd" clip-rule="evenodd" d="M8.57143 113H111.429C116.127 113 120 109.142 120 104.461V42.5388C120 37.8583 116.127 34 111.429 34H8.57143C3.87302 34 0 37.8583 0 42.5388V104.461C0 109.142 3.87302 113 8.57143 113ZM1.90476 42.5388C1.90476 38.8703 4.88889 35.8975 8.57143 35.8975H111.429C115.111 35.8975 118.095 38.8703 118.095 42.5388V104.461C118.095 108.13 115.111 111.102 111.429 111.102H8.57143C4.88889 111.102 1.90476 108.13 1.90476 104.461V42.5388Z" fill="black"/>
<path d="M4 38L59.5401 72.4849L114 38L59.5401 78L4 38Z" fill="#727272"/>
<path d="M59.6506 78L4 109.452C4 109.452 5.27056 110.992 8.95519 110.992C12.6398 110.992 111.108 110.992 111.108 110.992C111.108 110.992 113.84 111.249 116 108.81L59.6506 78Z" fill="#F3F3F3"/>
<path fill-rule="evenodd" clip-rule="evenodd" d="M6.5 35V20H9.5V35H6.5Z" fill="black"/>
<path d="M14.4307 14.7781L13.4157 14.0287C12.9716 13.6539 12.8447 12.9669 13.2254 12.5298L18.0467 6.40924C18.4274 5.97206 19.1252 5.84716 19.5693 6.22188L20.5843 6.97133C21.0284 7.34606 21.1553 7.9706 20.7746 8.47024L15.9533 14.5908C15.5726 15.0279 14.8748 15.1528 14.4307 14.7781Z" fill="black"/>
<path d="M4.46669 7C4.46669 7 1.96113 17.5329 8.56113 22.7359C15.1611 27.9389 25 22.5455 25 22.5455L4.46669 7Z" fill="#FF2323"/>
</g>
<defs>
<clipPath id="clip0">
<rect width="120" height="120" fill="white"/>
</clipPath>
</defs>
</svg>
