<svg width="124" height="55" viewBox="0 0 124 55" fill="none" xmlns="http://www.w3.org/2000/svg">
<g clip-path="url(#clip0)">
<path d="M21.5614 21.2144L32.7528 0.182571L44.0172 21.2144H39.946L32.8258 7.86867L25.8335 21.2691L21.5614 21.2144Z" fill="#C1272D"/>
<path d="M47.3762 21.1231L47.4675 0.0547703L57.527 15.0801L67.4222 0V21.2691H64.0812V12.5424L57.6365 22.0907L51.1736 12.5059V21.1048L47.3762 21.1231Z" fill="#C1272D"/>
<path d="M71.603 21.0683L82.7944 0.0365143L94.0589 21.0683H89.9876L82.8675 7.74087L75.8751 21.1413L71.603 21.0683Z" fill="#C1272D"/>
<path d="M71.7493 46.2992L82.9407 25.2674L94.2051 46.2992H90.1338L83.0137 32.9717L76.0214 46.3722L71.7493 46.2992Z" fill="#C1272D"/>
<path d="M101.398 26.1254H97.6189V46.4452H101.398V26.1254Z" fill="#C1272D"/>
<path d="M47.3762 46.2079L47.4675 25.1396L57.527 40.1649L67.4222 25.0848V46.3722H64.0812V37.6272L57.6365 47.1938L51.1736 37.609V46.1896L47.3762 46.2079Z" fill="#C1272D"/>
<path d="M105.743 25.669V46.4635H109.066V33.7385L122.686 46.4635H124V26.0342H120.44L120.385 39.5624L105.743 25.669Z" fill="#C1272D"/>
<path d="M19.0966 35.0895C19.0966 35.0895 19.0966 35.0895 19.0966 34.9617C18.3115 26.4723 9.85865 26.4541 9.85865 26.4541H0V46.3905H9.82214C9.82214 46.3905 18.7497 46.3905 19.1148 37.2621C19.1974 36.5399 19.1913 35.8102 19.0966 35.0895V35.0895ZM9.9682 42.5565C4.3086 42.5565 3.70612 42.5565 3.70612 42.5565V41.4976V42.5565V30.4158C3.70612 30.4158 4.3086 30.4158 9.9682 30.4158C11.3635 30.3663 12.7218 30.8699 13.7476 31.817C14.7734 32.7642 15.3835 34.0781 15.4452 35.4729V35.4729C15.4452 35.4729 15.5548 36.5136 15.573 37.0795C15.5731 37.8034 15.4296 38.5201 15.1509 39.1882C14.8723 39.8563 14.4639 40.4625 13.9495 40.9719C13.4351 41.4812 12.8249 41.8834 12.154 42.1555C11.4832 42.4275 10.7651 42.5638 10.0412 42.5565H9.9682Z" fill="#C1272D"/>
<path d="M14.861 0.638978V14.6419L2.57421 2.88456L0 0.328613V21.1778H3.85218V8.54416L17.1066 21.2691H18.1837V0.638978H14.861Z" fill="#C1272D"/>
<path d="M32.7527 25.6508C30.6891 25.651 28.6703 26.2532 26.9438 27.3836C25.2173 28.514 23.858 30.1234 23.0325 32.0148C22.207 33.9061 21.9511 35.9971 22.2962 38.0317C22.6413 40.0663 23.5723 41.956 24.9753 43.4694L20.4111 47.7232L25.3405 47.8875L23.2957 52.5247L27.2026 54.1861L29.1926 49.5306L32.6797 53.0359V46.8834H32.7892C35.6024 46.8834 38.3004 45.7659 40.2896 43.7766C42.2789 41.7874 43.3964 39.0894 43.3964 36.2762C43.3964 33.463 42.2789 30.765 40.2896 28.7758C38.3004 26.7866 35.6024 25.669 32.7892 25.669L32.7527 25.6508ZM28.6449 47.1572L26.3628 52.47L25.1579 51.9405L27.44 46.7739H23.2774L25.8699 44.3822L28.5354 41.8993L31.4565 39.1973V49.9505L28.6449 47.1572ZM32.6797 43.232V36.3857L27.6043 40.9499C26.5581 39.7972 25.9397 38.32 25.8526 36.7657C25.7655 35.2114 26.2151 33.6744 27.1259 32.412C28.0368 31.1495 29.3537 30.2383 30.8561 29.8309C32.3586 29.4235 33.9554 29.5447 35.3793 30.174C36.8031 30.8034 37.9675 31.9028 38.6775 33.2882C39.3875 34.6736 39.6 36.2608 39.2795 37.7842C38.959 39.3076 38.1248 40.6746 36.9167 41.6563C35.7086 42.6381 34.1999 43.1751 32.6432 43.1773L32.6797 43.232Z" fill="#ED2024"/>
</g>
<defs>
<clipPath id="clip0">
<rect width="124" height="54.1313" fill="white"/>
</clipPath>
</defs>
</svg>
